solid AssimpScene
 facet normal 0 0 0
  outer loop
  vertex -0.0114333527 0.0077678808 -0.0220149141
  vertex -0.0182739571 -0.0155607155 -0.0220149141
  vertex -0.02427621 -0.0157889146 -0.0217149127
  endloop
 endfacet

 facet normal 0 0 0
  outer loop
  vertex -0.0114333527 0.0077678808 -0.0220149141
  vertex -0.02427621 -0.0157889146 -0.0217149127
  vertex -0.0285582636 -0.0113383951 -0.0217149127
  endloop
 endfacet

 facet normal 0 0 0
  outer loop
  vertex -0.0114333527 0.0077678808 -0.0220149141
  vertex -0.0285582636 -0.0113383951 -0.0217149127
  vertex -0.0308333524 0.0077678808 -0.0220149141
  endloop
 endfacet

 facet normal 0 0 0
  outer loop
  vertex -0.0283840783 -0.0118124997 0.0122850882
  vertex -0.0310488287 0.0011140448 0.0122850882
  vertex -0.0310488287 0.0011140448 -0.0217149127
  endloop
 endfacet

 facet normal 0 0 0
  outer loop
  vertex -0.0283840783 -0.0118124997 0.0122850882
  vertex -0.0310488287 0.0011140448 -0.0217149127
  vertex -0.0285582636 -0.0113383951 -0.0217149127
  endloop
 endfacet

 facet normal 0 0 0
  outer loop
  vertex -0.02427621 -0.0157889146 -0.0217149127
  vertex -0.0283840783 -0.0118124997 0.0122850882
  vertex -0.0285582636 -0.0113383951 -0.0217149127
  endloop
 endfacet

 facet normal 0 0 0
  outer loop
  vertex -0.0239927471 -0.0155607155 0.0125850886
  vertex -0.0283840783 -0.0118124997 0.0122850882
  vertex -0.02427621 -0.0157889146 -0.0217149127
  endloop
 endfacet

 facet normal 0 0 0
  outer loop
  vertex -0.0239927471 -0.0155607155 0.0125850886
  vertex -0.02427621 -0.0157889146 -0.0217149127
  vertex -0.0221391637 -0.0163686387 0.00978508778
  endloop
 endfacet

 facet normal 0 0 0
  outer loop
  vertex -0.0114333527 0.0077678808 -0.0220149141
  vertex -0.0308333524 0.0077678808 -0.0220149141
  vertex -0.0207116175 0.0354564711 -0.0191149116
  endloop
 endfacet

 facet normal 0 0 0
  outer loop
  vertex -0.0149551174 -0.0135143818 -0.0217149127
  vertex 0.00336664706 0.0166678801 -0.0180149116
  vertex 0.00336664706 0.0166678801 0.00858508795
  endloop
 endfacet

 facet normal 0 0 0
  outer loop
  vertex -0.0149551174 -0.0135143818 -0.0217149127
  vertex 0.00336664706 0.0166678801 0.00858508795
  vertex -0.0149551174 -0.0135143818 0.0122850882
  endloop
 endfacet

 facet normal 0 0 0
  outer loop
  vertex -0.0149551174 -0.0135143818 -0.0217149127
  vertex -0.0182739571 -0.0155607155 -0.0220149141
  vertex -0.0114333527 0.0077678808 -0.0220149141
  endloop
 endfacet

 facet normal 0 0 0
  outer loop
  vertex -0.0182270762 -0.0158570297 0.0122850882
  vertex -0.0239927471 -0.0155607155 0.0125850886
  vertex -0.0221391637 -0.0163686387 0.00978508778
  endloop
 endfacet

 facet normal 0 0 0
  outer loop
  vertex -0.0182270762 -0.0158570297 0.0122850882
  vertex -0.0182739571 -0.0155607155 -0.0220149141
  vertex -0.0149551174 -0.0135143818 -0.0217149127
  endloop
 endfacet

 facet normal 0 0 0
  outer loop
  vertex -0.0182270762 -0.0158570297 0.0122850882
  vertex -0.0149551174 -0.0135143818 -0.0217149127
  vertex -0.0149551174 -0.0135143818 0.0122850882
  endloop
 endfacet

 facet normal 0 0 0
  outer loop
  vertex -0.0276676025 0.0319274105 -0.0191149116
  vertex -0.0207116175 0.0354564711 -0.0191149116
  vertex -0.0308333524 0.0077678808 -0.0220149141
  endloop
 endfacet

 facet normal 0 0 0
  outer loop
  vertex -0.0276676025 0.0319274105 -0.0191149116
  vertex -0.0308333524 0.0077678808 -0.0220149141
  vertex -0.0306333527 0.0366678797 -0.0160149112
  endloop
 endfacet

 facet normal 0 0 0
  outer loop
  vertex -0.0296333525 0.0376678817 0.00658508809
  vertex -0.030433353 0.0365850367 0.00678508822
  vertex -0.0280825123 0.031210361 0.00958508812
  endloop
 endfacet

 facet normal 0 0 0
  outer loop
  vertex -0.0296333525 0.0376678817 0.00658508809
  vertex -0.0280825123 0.031210361 0.00958508812
  vertex -0.0202290565 0.0354152843 0.00958508812
  endloop
 endfacet

 facet normal 0 0 0
  outer loop
  vertex -0.0296333525 0.0376678817 0.00658508809
  vertex -0.0202290565 0.0354152843 0.00958508812
  vertex 0.00236664712 0.0376678817 0.00658508809
  endloop
 endfacet

 facet normal 0 0 0
  outer loop
  vertex -0.0296333525 0.0376678817 0.00658508809
  vertex -0.0306333527 0.0366678797 -0.0160149112
  vertex -0.030433353 0.0365850367 0.00678508822
  endloop
 endfacet

 facet normal 0 0 0
  outer loop
  vertex -0.0310488287 0.0011140448 -0.0217149127
  vertex -0.0310488287 0.0011140448 0.0122850882
  vertex -0.030433353 0.0365850367 0.00678508822
  endloop
 endfacet

 facet normal 0 0 0
  outer loop
  vertex -0.0310488287 0.0011140448 -0.0217149127
  vertex -0.030433353 0.0365850367 0.00678508822
  vertex -0.0306333527 0.0366678797 -0.0160149112
  endloop
 endfacet

 facet normal 0 0 0
  outer loop
  vertex -0.0310488287 0.0011140448 -0.0217149127
  vertex -0.0306333527 0.0366678797 -0.0160149112
  vertex -0.0308333524 0.0077678808 -0.0220149141
  endloop
 endfacet

 facet normal 0 0 0
  outer loop
  vertex -0.0310488287 0.0011140448 -0.0217149127
  vertex -0.0308333524 0.0077678808 -0.0220149141
  vertex -0.0285582636 -0.0113383951 -0.0217149127
  endloop
 endfacet

 facet normal 0 0 0
  outer loop
  vertex -0.0308333524 0.0077678808 0.0125850886
  vertex -0.0310488287 0.0011140448 0.0122850882
  vertex -0.0283840783 -0.0118124997 0.0122850882
  endloop
 endfacet

 facet normal 0 0 0
  outer loop
  vertex -0.0308333524 0.0077678808 0.0125850886
  vertex -0.0283840783 -0.0118124997 0.0122850882
  vertex -0.0239927471 -0.0155607155 0.0125850886
  endloop
 endfacet

 facet normal 0 0 0
  outer loop
  vertex -0.0308333524 0.0077678808 0.0125850886
  vertex -0.0239927471 -0.0155607155 0.0125850886
  vertex -0.0182270762 -0.0158570297 0.0122850882
  endloop
 endfacet

 facet normal 0 0 0
  outer loop
  vertex -0.0308333524 0.0077678808 0.0125850886
  vertex -0.0182270762 -0.0158570297 0.0122850882
  vertex -0.0149551174 -0.0135143818 0.0122850882
  endloop
 endfacet

 facet normal 0 0 0
  outer loop
  vertex -0.0308333524 0.0077678808 0.0125850886
  vertex -0.0149551174 -0.0135143818 0.0122850882
  vertex -0.0114333527 0.0077678808 0.0125850886
  endloop
 endfacet

 facet normal 0 0 0
  outer loop
  vertex -0.0308333524 0.0077678808 0.0125850886
  vertex -0.0114333527 0.0077678808 0.0125850886
  vertex -0.0202290565 0.0354152843 0.00958508812
  endloop
 endfacet

 facet normal 0 0 0
  outer loop
  vertex -0.0308333524 0.0077678808 0.0125850886
  vertex -0.0202290565 0.0354152843 0.00958508812
  vertex -0.0280825123 0.031210361 0.00958508812
  endloop
 endfacet

 facet normal 0 0 0
  outer loop
  vertex -0.0308333524 0.0077678808 0.0125850886
  vertex -0.0280825123 0.031210361 0.00958508812
  vertex -0.030433353 0.0365850367 0.00678508822
  endloop
 endfacet

 facet normal 0 0 0
  outer loop
  vertex -0.0308333524 0.0077678808 0.0125850886
  vertex -0.030433353 0.0365850367 0.00678508822
  vertex -0.0310488287 0.0011140448 0.0122850882
  endloop
 endfacet

 facet normal 0 0 0
  outer loop
  vertex -0.0296333525 0.0376678817 -0.0160149112
  vertex -0.0207116175 0.0354564711 -0.0191149116
  vertex -0.0276676025 0.0319274105 -0.0191149116
  endloop
 endfacet

 facet normal 0 0 0
  outer loop
  vertex -0.0296333525 0.0376678817 -0.0160149112
  vertex -0.0276676025 0.0319274105 -0.0191149116
  vertex -0.0306333527 0.0366678797 -0.0160149112
  endloop
 endfacet

 facet normal 0 0 0
  outer loop
  vertex -0.0296333525 0.0376678817 -0.0160149112
  vertex -0.0306333527 0.0366678797 -0.0160149112
  vertex -0.0296333525 0.0376678817 0.00658508809
  endloop
 endfacet

 facet normal 0 0 0
  outer loop
  vertex 0.00336664706 0.0366678797 0.00658508809
  vertex 0.00336664706 0.0166678801 0.00858508795
  vertex 0.00336664706 0.0166678801 -0.0180149116
  endloop
 endfacet

 facet normal 0 0 0
  outer loop
  vertex 0.00336664706 0.0366678797 0.00658508809
  vertex 0.00336664706 0.0166678801 -0.0180149116
  vertex 0.00336664706 0.0366678797 -0.0160149112
  endloop
 endfacet

 facet normal 0 0 0
  outer loop
  vertex 0.00236664712 0.0376678817 -0.0160149112
  vertex -0.0207116175 0.0354564711 -0.0191149116
  vertex -0.0296333525 0.0376678817 -0.0160149112
  endloop
 endfacet

 facet normal 0 0 0
  outer loop
  vertex 0.00236664712 0.0376678817 -0.0160149112
  vertex -0.0296333525 0.0376678817 -0.0160149112
  vertex -0.0296333525 0.0376678817 0.00658508809
  endloop
 endfacet

 facet normal 0 0 0
  outer loop
  vertex 0.00236664712 0.0376678817 -0.0160149112
  vertex -0.0296333525 0.0376678817 0.00658508809
  vertex 0.00236664712 0.0376678817 0.00658508809
  endloop
 endfacet

 facet normal 0 0 0
  outer loop
  vertex 0.00236664712 0.0376678817 -0.0160149112
  vertex 0.00236664712 0.0376678817 0.00658508809
  vertex 0.00336664706 0.0366678797 0.00658508809
  endloop
 endfacet

 facet normal 0 0 0
  outer loop
  vertex 0.00236664712 0.0376678817 -0.0160149112
  vertex 0.00336664706 0.0366678797 0.00658508809
  vertex 0.00336664706 0.0366678797 -0.0160149112
  endloop
 endfacet

 facet normal 0 0 0
  outer loop
  vertex 0.00236664712 0.0177178811 0.00958508812
  vertex 0.00336664706 0.0166678801 0.00858508795
  vertex 0.00336664706 0.0366678797 0.00658508809
  endloop
 endfacet

 facet normal 0 0 0
  outer loop
  vertex 0.00336664706 0.0366678797 0.00658508809
  vertex 0.00236664712 0.0376678817 0.00658508809
  vertex -0.0202290565 0.0354152843 0.00958508812
  endloop
 endfacet

 facet normal 0 0 0
  outer loop
  vertex 0.00336664706 0.0366678797 0.00658508809
  vertex -0.0202290565 0.0354152843 0.00958508812
  vertex -0.0114333527 0.0077678808 0.0125850886
  endloop
 endfacet

 facet normal 0 0 0
  outer loop
  vertex 0.00336664706 0.0366678797 0.00658508809
  vertex -0.0114333527 0.0077678808 0.0125850886
  vertex 0.00236664712 0.0177178811 0.00958508812
  endloop
 endfacet

 facet normal 0 0 0
  outer loop
  vertex 0.00236664712 0.0177178811 0.00958508812
  vertex -0.0114333527 0.0077678808 0.0125850886
  vertex -0.0149551174 -0.0135143818 0.0122850882
  endloop
 endfacet

 facet normal 0 0 0
  outer loop
  vertex 0.00236664712 0.0177178811 0.00958508812
  vertex -0.0149551174 -0.0135143818 0.0122850882
  vertex 0.00336664706 0.0166678801 0.00858508795
  endloop
 endfacet

 facet normal 0 0 0
  outer loop
  vertex 0.00236664712 0.0177178811 -0.0190149117
  vertex 0.00336664706 0.0166678801 -0.0180149116
  vertex -0.0149551174 -0.0135143818 -0.0217149127
  endloop
 endfacet

 facet normal 0 0 0
  outer loop
  vertex 0.00236664712 0.0177178811 -0.0190149117
  vertex -0.0149551174 -0.0135143818 -0.0217149127
  vertex -0.0114333527 0.0077678808 -0.0220149141
  endloop
 endfacet

 facet normal 0 0 0
  outer loop
  vertex -0.0114333527 0.0077678808 -0.0220149141
  vertex -0.0207116175 0.0354564711 -0.0191149116
  vertex 0.00236664712 0.0376678817 -0.0160149112
  endloop
 endfacet

 facet normal 0 0 0
  outer loop
  vertex -0.0114333527 0.0077678808 -0.0220149141
  vertex 0.00236664712 0.0376678817 -0.0160149112
  vertex 0.00336664706 0.0366678797 -0.0160149112
  endloop
 endfacet

 facet normal 0 0 0
  outer loop
  vertex -0.0114333527 0.0077678808 -0.0220149141
  vertex 0.00336664706 0.0366678797 -0.0160149112
  vertex 0.00236664712 0.0177178811 -0.0190149117
  endloop
 endfacet

 facet normal 0 0 0
  outer loop
  vertex 0.00236664712 0.0177178811 -0.0190149117
  vertex 0.00336664706 0.0366678797 -0.0160149112
  vertex 0.00336664706 0.0166678801 -0.0180149116
  endloop
 endfacet

 facet normal 0 0 0
  outer loop
  vertex -0.0201275405 -0.0163686387 -0.0206149127
  vertex -0.0221391637 -0.0163686387 0.00978508778
  vertex -0.02427621 -0.0157889146 -0.0217149127
  endloop
 endfacet

 facet normal 0 0 0
  outer loop
  vertex -0.0201275405 -0.0163686387 -0.0206149127
  vertex -0.02427621 -0.0157889146 -0.0217149127
  vertex -0.0182739571 -0.0155607155 -0.0220149141
  endloop
 endfacet

 facet normal 0 0 0
  outer loop
  vertex -0.0201275405 -0.0163686387 -0.0206149127
  vertex -0.0182739571 -0.0155607155 -0.0220149141
  vertex -0.0182270762 -0.0158570297 0.0122850882
  endloop
 endfacet

 facet normal 0 0 0
  outer loop
  vertex -0.0201275405 -0.0163686387 -0.0206149127
  vertex -0.0182270762 -0.0158570297 0.0122850882
  vertex -0.0221391637 -0.0163686387 0.00978508778
  endloop
 endfacet

endsolid AssimpScene
