solid AssimpScene
 facet normal 0 0 0
  outer loop
  vertex -0.00418202439 0.0355941765 -0.0054557086
  vertex -0.0038346923 0.0343659185 0.00399034657
  vertex -0.00358642428 0.0100857615 0.0173000004
  endloop
 endfacet

 facet normal 0 0 0
  outer loop
  vertex -0.00418202439 0.0355941765 -0.0054557086
  vertex -0.00358642428 0.0100857615 0.0173000004
  vertex -0.00337094814 0.00343192555 0.0170000009
  endloop
 endfacet

 facet normal 0 0 0
  outer loop
  vertex -0.00418202439 0.0355941765 -0.0054557086
  vertex -0.00337094814 0.00343192555 0.0170000009
  vertex -0.00337094814 0.00343192555 -0.0170000009
  endloop
 endfacet

 facet normal 0 0 0
  outer loop
  vertex -0.00418202439 0.0355941765 -0.0054557086
  vertex -0.00337094814 0.00343192555 -0.0170000009
  vertex -0.00328642409 0.00996149797 -0.0170000009
  endloop
 endfacet

 facet normal 0 0 0
  outer loop
  vertex -0.00586151425 -0.00902051479 0.0170000009
  vertex -0.00358642428 0.0100857615 0.0173000004
  vertex -0.0102614248 -0.0131951543 0.0173000004
  endloop
 endfacet

 facet normal 0 0 0
  outer loop
  vertex -0.0120554641 0.0419528671 -0.00710469531
  vertex -0.00791617204 0.0414340161 -0.00400338136
  vertex -0.00813790318 0.0381306112 -0.00965221878
  endloop
 endfacet

 facet normal 0 0 0
  outer loop
  vertex -0.0227195509 0.043137867 0.00408136658
  vertex -0.0137864249 0.0433857627 0.00200000009
  vertex -0.0231911708 0.043215882 -0.00200000009
  endloop
 endfacet

 facet normal 0 0 0
  outer loop
  vertex -0.0227195509 0.043137867 0.00408136658
  vertex -0.00910658482 0.041334454 0.00667965319
  vertex -0.0137864249 0.0433857627 0.00200000009
  endloop
 endfacet

 facet normal 0 0 0
  outer loop
  vertex -0.0229864251 0.0100857615 0.0173000004
  vertex -0.0232864246 0.00434740167 0.0170000009
  vertex -0.0194646604 -0.0111965025 0.0170000009
  endloop
 endfacet

 facet normal 0 0 0
  outer loop
  vertex -0.0229864251 0.0100857615 0.0173000004
  vertex -0.0237476919 0.0396195315 0.00892314222
  vertex -0.0232864246 0.00434740167 0.0170000009
  endloop
 endfacet

 facet normal 0 0 0
  outer loop
  vertex -0.0101435678 -0.0134710344 -0.0170000009
  vertex -0.0102614248 -0.0131951543 0.0173000004
  vertex -0.0142922373 -0.0140507575 0.0159000009
  endloop
 endfacet

 facet normal 0 0 0
  outer loop
  vertex -0.0101435678 -0.0134710344 -0.0170000009
  vertex -0.0142922373 -0.0140507575 0.0159000009
  vertex -0.0142922373 -0.0140507575 -0.0159000009
  endloop
 endfacet

 facet normal 0 0 0
  outer loop
  vertex -0.0229864251 0.0100857615 -0.0173000004
  vertex -0.0232018996 0.00343192555 -0.0170000009
  vertex -0.0242092088 0.0394367017 -0.00814060867
  endloop
 endfacet

 facet normal 0 0 0
  outer loop
  vertex -0.0229864251 0.0100857615 -0.0173000004
  vertex -0.0205371492 -0.00949461944 -0.0170000009
  vertex -0.0232018996 0.00343192555 -0.0170000009
  endloop
 endfacet

 facet normal 0 0 0
  outer loop
  vertex -0.0227195509 0.0423451625 -0.00637775613
  vertex -0.0242092088 0.0394367017 -0.00814060867
  vertex -0.0231911708 0.043215882 -0.00200000009
  endloop
 endfacet

 facet normal 0 0 0
  outer loop
  vertex -0.0212821662 0.0368185118 0.011362683
  vertex -0.0237476919 0.0396195315 0.00892314222
  vertex -0.0229864251 0.0100857615 0.0173000004
  endloop
 endfacet

 facet normal 0 0 0
  outer loop
  vertex -0.0229864251 0.0100857615 0.0173000004
  vertex -0.00358642428 0.0100857615 0.0173000004
  vertex -0.0106165661 0.0376313925 0.01092597
  endloop
 endfacet

 facet normal 0 0 0
  outer loop
  vertex -0.0229864251 0.0100857615 0.0173000004
  vertex -0.0106165661 0.0376313925 0.01092597
  vertex -0.0212821662 0.0368185118 0.011362683
  endloop
 endfacet

 facet normal 0 0 0
  outer loop
  vertex -0.0163114239 -0.0131951543 -0.0173000004
  vertex -0.0205371492 -0.00949461944 -0.0170000009
  vertex -0.0229864251 0.0100857615 -0.0173000004
  endloop
 endfacet

 facet normal 0 0 0
  outer loop
  vertex -0.0229864251 0.0100857615 -0.0173000004
  vertex -0.00328642409 0.00996149797 -0.0170000009
  vertex -0.00337094814 0.00343192555 -0.0170000009
  endloop
 endfacet

 facet normal 0 0 0
  outer loop
  vertex -0.0229864251 0.0100857615 -0.0173000004
  vertex -0.00337094814 0.00343192555 -0.0170000009
  vertex -0.00603569904 -0.00949461944 -0.0170000009
  endloop
 endfacet

 facet normal 0 0 0
  outer loop
  vertex -0.0229864251 0.0100857615 -0.0173000004
  vertex -0.00603569904 -0.00949461944 -0.0170000009
  vertex -0.0163114239 -0.0131951543 -0.0173000004
  endloop
 endfacet

 facet normal 0 0 0
  outer loop
  vertex -0.0163114239 -0.0131951543 -0.0173000004
  vertex -0.00603569904 -0.00949461944 -0.0170000009
  vertex -0.0101435678 -0.0134710344 -0.0170000009
  endloop
 endfacet

 facet normal 0 0 0
  outer loop
  vertex -0.0163114239 -0.0131951543 -0.0173000004
  vertex -0.0101435678 -0.0134710344 -0.0170000009
  vertex -0.0142922373 -0.0140507575 -0.0159000009
  endloop
 endfacet

 facet normal 0 0 0
  outer loop
  vertex -0.0163114239 -0.0131951543 -0.0173000004
  vertex -0.0194646604 -0.0111965025 0.0170000009
  vertex -0.0205371492 -0.00949461944 -0.0170000009
  endloop
 endfacet

 facet normal 0 0 0
  outer loop
  vertex -0.00337094814 0.00343192555 0.0170000009
  vertex -0.00358642428 0.0100857615 0.0173000004
  vertex -0.00586151425 -0.00902051479 0.0170000009
  endloop
 endfacet

 facet normal 0 0 0
  outer loop
  vertex -0.00328642409 0.00996149797 -0.0170000009
  vertex -0.0229864251 0.0100857615 -0.0173000004
  vertex -0.0207757987 0.0365155302 -0.0114965849
  endloop
 endfacet

 facet normal 0 0 0
  outer loop
  vertex -0.00328642409 0.00996149797 -0.0170000009
  vertex -0.0207757987 0.0365155302 -0.0114965849
  vertex -0.0103308233 0.0355941877 -0.0116060572
  endloop
 endfacet

 facet normal 0 0 0
  outer loop
  vertex -0.0103308233 0.0355941877 -0.0116060572
  vertex -0.00813790318 0.0381306112 -0.00965221878
  vertex -0.00328642409 0.00996149797 -0.0170000009
  endloop
 endfacet

 facet normal 0 0 0
  outer loop
  vertex -0.0227875262 0.0397502035 -0.00957968738
  vertex -0.0242092088 0.0394367017 -0.00814060867
  vertex -0.0227195509 0.0423451625 -0.00637775613
  endloop
 endfacet

 facet normal 0 0 0
  outer loop
  vertex -0.0227195509 0.0423451625 -0.00637775613
  vertex -0.0120554641 0.0419528671 -0.00710469531
  vertex -0.0122089433 0.0395337455 -0.0098874094
  endloop
 endfacet

 facet normal 0 0 0
  outer loop
  vertex -0.0227195509 0.0423451625 -0.00637775613
  vertex -0.0122089433 0.0395337455 -0.0098874094
  vertex -0.0227875262 0.0397502035 -0.00957968738
  endloop
 endfacet

 facet normal 0 0 0
  outer loop
  vertex -0.0227875262 0.0397502035 -0.00957968738
  vertex -0.0207757987 0.0365155302 -0.0114965849
  vertex -0.0229864251 0.0100857615 -0.0173000004
  endloop
 endfacet

 facet normal 0 0 0
  outer loop
  vertex -0.0227875262 0.0397502035 -0.00957968738
  vertex -0.0229864251 0.0100857615 -0.0173000004
  vertex -0.0242092088 0.0394367017 -0.00814060867
  endloop
 endfacet

 facet normal 0 0 0
  outer loop
  vertex -0.0161458179 -0.0132428342 0.0173000004
  vertex -0.0194646604 -0.0111965025 0.0170000009
  vertex -0.0163114239 -0.0131951543 -0.0173000004
  endloop
 endfacet

 facet normal 0 0 0
  outer loop
  vertex -0.0161458179 -0.0132428342 0.0173000004
  vertex -0.0163114239 -0.0131951543 -0.0173000004
  vertex -0.0142922373 -0.0140507575 -0.0159000009
  endloop
 endfacet

 facet normal 0 0 0
  outer loop
  vertex -0.0161458179 -0.0132428342 0.0173000004
  vertex -0.0142922373 -0.0140507575 -0.0159000009
  vertex -0.0142922373 -0.0140507575 0.0159000009
  endloop
 endfacet

 facet normal 0 0 0
  outer loop
  vertex -0.0161458179 -0.0132428342 0.0173000004
  vertex -0.0142922373 -0.0140507575 0.0159000009
  vertex -0.0102614248 -0.0131951543 0.0173000004
  endloop
 endfacet

 facet normal 0 0 0
  outer loop
  vertex -0.0161458179 -0.0132428342 0.0173000004
  vertex -0.0102614248 -0.0131951543 0.0173000004
  vertex -0.00358642428 0.0100857615 0.0173000004
  endloop
 endfacet

 facet normal 0 0 0
  outer loop
  vertex -0.0161458179 -0.0132428342 0.0173000004
  vertex -0.00358642428 0.0100857615 0.0173000004
  vertex -0.0229864251 0.0100857615 0.0173000004
  endloop
 endfacet

 facet normal 0 0 0
  outer loop
  vertex -0.0161458179 -0.0132428342 0.0173000004
  vertex -0.0229864251 0.0100857615 0.0173000004
  vertex -0.0194646604 -0.0111965025 0.0170000009
  endloop
 endfacet

 facet normal 0 0 0
  outer loop
  vertex -0.024316391 0.0419034027 0.00200000009
  vertex -0.0237476919 0.0396195315 0.00892314222
  vertex -0.0227195509 0.043137867 0.00408136658
  endloop
 endfacet

 facet normal 0 0 0
  outer loop
  vertex -0.024316391 0.0419034027 0.00200000009
  vertex -0.0227195509 0.043137867 0.00408136658
  vertex -0.0231911708 0.043215882 -0.00200000009
  endloop
 endfacet

 facet normal 0 0 0
  outer loop
  vertex -0.024316391 0.0419034027 0.00200000009
  vertex -0.0231911708 0.043215882 -0.00200000009
  vertex -0.0242092088 0.0394367017 -0.00814060867
  endloop
 endfacet

 facet normal 0 0 0
  outer loop
  vertex -0.00651362492 0.0401542932 0.00451820111
  vertex -0.00791617204 0.0414340161 -0.00400338136
  vertex -0.00910658482 0.041334454 0.00667965319
  endloop
 endfacet

 facet normal 0 0 0
  outer loop
  vertex -0.00651362492 0.0401542932 0.00451820111
  vertex -0.00910658482 0.041334454 0.00667965319
  vertex -0.00497544045 0.0369051322 0.00670186104
  endloop
 endfacet

 facet normal 0 0 0
  outer loop
  vertex -0.00651362492 0.0401542932 0.00451820111
  vertex -0.00497544045 0.0369051322 0.00670186104
  vertex -0.0038346923 0.0343659185 0.00399034657
  endloop
 endfacet

 facet normal 0 0 0
  outer loop
  vertex -0.00651362492 0.0401542932 0.00451820111
  vertex -0.0038346923 0.0343659185 0.00399034657
  vertex -0.00418202439 0.0355941765 -0.0054557086
  endloop
 endfacet

 facet normal 0 0 0
  outer loop
  vertex -0.00694572181 0.0359308012 0.00992253423
  vertex -0.00497544045 0.0369051322 0.00670186104
  vertex -0.00910658482 0.041334454 0.00667965319
  endloop
 endfacet

 facet normal 0 0 0
  outer loop
  vertex -0.00694572181 0.0359308012 0.00992253423
  vertex -0.00910658482 0.041334454 0.00667965319
  vertex -0.0106165661 0.0376313925 0.01092597
  endloop
 endfacet

 facet normal 0 0 0
  outer loop
  vertex -0.00694572181 0.0359308012 0.00992253423
  vertex -0.0106165661 0.0376313925 0.01092597
  vertex -0.00358642428 0.0100857615 0.0173000004
  endloop
 endfacet

 facet normal 0 0 0
  outer loop
  vertex -0.00694572181 0.0359308012 0.00992253423
  vertex -0.00358642428 0.0100857615 0.0173000004
  vertex -0.00497544045 0.0369051322 0.00670186104
  endloop
 endfacet

 facet normal 0 0 0
  outer loop
  vertex -0.0124164224 0.0406703986 0.00885001291
  vertex -0.0106165661 0.0376313925 0.01092597
  vertex -0.00910658482 0.041334454 0.00667965319
  endloop
 endfacet

 facet normal 0 0 0
  outer loop
  vertex -0.0124164224 0.0406703986 0.00885001291
  vertex -0.00910658482 0.041334454 0.00667965319
  vertex -0.0227195509 0.043137867 0.00408136658
  endloop
 endfacet

 facet normal 0 0 0
  outer loop
  vertex -0.0243845396 0.0153449681 -0.00693727192
  vertex -0.0232864246 0.00434740167 0.0170000009
  vertex -0.0237476919 0.0396195315 0.00892314222
  endloop
 endfacet

 facet normal 0 0 0
  outer loop
  vertex -0.0243845396 0.0153449681 -0.00693727192
  vertex -0.0237476919 0.0396195315 0.00892314222
  vertex -0.024316391 0.0419034027 0.00200000009
  endloop
 endfacet

 facet normal 0 0 0
  outer loop
  vertex -0.0243845396 0.0153449681 -0.00693727192
  vertex -0.024316391 0.0419034027 0.00200000009
  vertex -0.0242092088 0.0394367017 -0.00814060867
  endloop
 endfacet

 facet normal 0 0 0
  outer loop
  vertex -0.0243845396 0.0153449681 -0.00693727192
  vertex -0.0242092088 0.0394367017 -0.00814060867
  vertex -0.0232018996 0.00343192555 -0.0170000009
  endloop
 endfacet

 facet normal 0 0 0
  outer loop
  vertex -0.0243845396 0.0153449681 -0.00693727192
  vertex -0.0232018996 0.00343192555 -0.0170000009
  vertex -0.0232864246 0.00434740167 0.0170000009
  endloop
 endfacet

 facet normal 0 0 0
  outer loop
  vertex -0.00337094814 0.00343192555 -0.0170000009
  vertex -0.00337094814 0.00343192555 0.0170000009
  vertex -0.00586151425 -0.00902051479 0.0170000009
  endloop
 endfacet

 facet normal 0 0 0
  outer loop
  vertex -0.00337094814 0.00343192555 -0.0170000009
  vertex -0.00586151425 -0.00902051479 0.0170000009
  vertex -0.00603569904 -0.00949461944 -0.0170000009
  endloop
 endfacet

 facet normal 0 0 0
  outer loop
  vertex -0.00574097363 0.038050998 -0.00706262747
  vertex -0.00813790318 0.0381306112 -0.00965221878
  vertex -0.00791617204 0.0414340161 -0.00400338136
  endloop
 endfacet

 facet normal 0 0 0
  outer loop
  vertex -0.00574097363 0.038050998 -0.00706262747
  vertex -0.00791617204 0.0414340161 -0.00400338136
  vertex -0.00651362492 0.0401542932 0.00451820111
  endloop
 endfacet

 facet normal 0 0 0
  outer loop
  vertex -0.00574097363 0.038050998 -0.00706262747
  vertex -0.00651362492 0.0401542932 0.00451820111
  vertex -0.00418202439 0.0355941765 -0.0054557086
  endloop
 endfacet

 facet normal 0 0 0
  outer loop
  vertex -0.00574097363 0.038050998 -0.00706262747
  vertex -0.00418202439 0.0355941765 -0.0054557086
  vertex -0.00328642409 0.00996149797 -0.0170000009
  endloop
 endfacet

 facet normal 0 0 0
  outer loop
  vertex -0.00574097363 0.038050998 -0.00706262747
  vertex -0.00328642409 0.00996149797 -0.0170000009
  vertex -0.00813790318 0.0381306112 -0.00965221878
  endloop
 endfacet

 facet normal 0 0 0
  outer loop
  vertex -0.0223845392 0.0412609801 0.00816286635
  vertex -0.0237476919 0.0396195315 0.00892314222
  vertex -0.0212821662 0.0368185118 0.011362683
  endloop
 endfacet

 facet normal 0 0 0
  outer loop
  vertex -0.0223845392 0.0412609801 0.00816286635
  vertex -0.0212821662 0.0368185118 0.011362683
  vertex -0.0106165661 0.0376313925 0.01092597
  endloop
 endfacet

 facet normal 0 0 0
  outer loop
  vertex -0.0223845392 0.0412609801 0.00816286635
  vertex -0.0106165661 0.0376313925 0.01092597
  vertex -0.0124164224 0.0406703986 0.00885001291
  endloop
 endfacet

 facet normal 0 0 0
  outer loop
  vertex -0.0223845392 0.0412609801 0.00816286635
  vertex -0.0124164224 0.0406703986 0.00885001291
  vertex -0.0227195509 0.043137867 0.00408136658
  endloop
 endfacet

 facet normal 0 0 0
  outer loop
  vertex -0.0223845392 0.0412609801 0.00816286635
  vertex -0.0227195509 0.043137867 0.00408136658
  vertex -0.0237476919 0.0396195315 0.00892314222
  endloop
 endfacet

 facet normal 0 0 0
  outer loop
  vertex -0.0038346923 0.0343659185 0.00399034657
  vertex -0.00497544045 0.0369051322 0.00670186104
  vertex -0.00358642428 0.0100857615 0.0173000004
  endloop
 endfacet

 facet normal 0 0 0
  outer loop
  vertex -0.0122089433 0.0395337455 -0.0098874094
  vertex -0.00813790318 0.0381306112 -0.00965221878
  vertex -0.0103308233 0.0355941877 -0.0116060572
  endloop
 endfacet

 facet normal 0 0 0
  outer loop
  vertex -0.0122089433 0.0395337455 -0.0098874094
  vertex -0.0103308233 0.0355941877 -0.0116060572
  vertex -0.0207757987 0.0365155302 -0.0114965849
  endloop
 endfacet

 facet normal 0 0 0
  outer loop
  vertex -0.0122089433 0.0395337455 -0.0098874094
  vertex -0.0207757987 0.0365155302 -0.0114965849
  vertex -0.0227875262 0.0397502035 -0.00957968738
  endloop
 endfacet

 facet normal 0 0 0
  outer loop
  vertex -0.0122089433 0.0395337455 -0.0098874094
  vertex -0.0120554641 0.0419528671 -0.00710469531
  vertex -0.00813790318 0.0381306112 -0.00965221878
  endloop
 endfacet

 facet normal 0 0 0
  outer loop
  vertex -0.021151185 -0.00757899974 0.0157999992
  vertex -0.0232864246 0.00434740167 0.0170000009
  vertex -0.0232018996 0.00343192555 -0.0170000009
  endloop
 endfacet

 facet normal 0 0 0
  outer loop
  vertex -0.021151185 -0.00757899974 0.0157999992
  vertex -0.0232018996 0.00343192555 -0.0170000009
  vertex -0.0205371492 -0.00949461944 -0.0170000009
  endloop
 endfacet

 facet normal 0 0 0
  outer loop
  vertex -0.021151185 -0.00757899974 0.0157999992
  vertex -0.0205371492 -0.00949461944 -0.0170000009
  vertex -0.0194646604 -0.0111965025 0.0170000009
  endloop
 endfacet

 facet normal 0 0 0
  outer loop
  vertex -0.021151185 -0.00757899974 0.0157999992
  vertex -0.0194646604 -0.0111965025 0.0170000009
  vertex -0.0232864246 0.00434740167 0.0170000009
  endloop
 endfacet

 facet normal 0 0 0
  outer loop
  vertex -0.0114330854 0.0429111905 -0.00435343664
  vertex -0.00791617204 0.0414340161 -0.00400338136
  vertex -0.0120554641 0.0419528671 -0.00710469531
  endloop
 endfacet

 facet normal 0 0 0
  outer loop
  vertex -0.0114330854 0.0429111905 -0.00435343664
  vertex -0.0120554641 0.0419528671 -0.00710469531
  vertex -0.0227195509 0.0423451625 -0.00637775613
  endloop
 endfacet

 facet normal 0 0 0
  outer loop
  vertex -0.0114330854 0.0429111905 -0.00435343664
  vertex -0.0227195509 0.0423451625 -0.00637775613
  vertex -0.0231911708 0.043215882 -0.00200000009
  endloop
 endfacet

 facet normal 0 0 0
  outer loop
  vertex -0.0114330854 0.0429111905 -0.00435343664
  vertex -0.0231911708 0.043215882 -0.00200000009
  vertex -0.0137864249 0.0433857627 0.00200000009
  endloop
 endfacet

 facet normal 0 0 0
  outer loop
  vertex -0.0137864249 0.0433857627 0.00200000009
  vertex -0.00910658482 0.041334454 0.00667965319
  vertex -0.00791617204 0.0414340161 -0.00400338136
  endloop
 endfacet

 facet normal 0 0 0
  outer loop
  vertex -0.0137864249 0.0433857627 0.00200000009
  vertex -0.00791617204 0.0414340161 -0.00400338136
  vertex -0.0114330854 0.0429111905 -0.00435343664
  endloop
 endfacet

 facet normal 0 0 0
  outer loop
  vertex -0.0071081887 -0.0111965025 0.0170000009
  vertex -0.0102614248 -0.0131951543 0.0173000004
  vertex -0.0101435678 -0.0134710344 -0.0170000009
  endloop
 endfacet

 facet normal 0 0 0
  outer loop
  vertex -0.0071081887 -0.0111965025 0.0170000009
  vertex -0.0101435678 -0.0134710344 -0.0170000009
  vertex -0.00603569904 -0.00949461944 -0.0170000009
  endloop
 endfacet

 facet normal 0 0 0
  outer loop
  vertex -0.0071081887 -0.0111965025 0.0170000009
  vertex -0.00603569904 -0.00949461944 -0.0170000009
  vertex -0.00586151425 -0.00902051479 0.0170000009
  endloop
 endfacet

 facet normal 0 0 0
  outer loop
  vertex -0.0071081887 -0.0111965025 0.0170000009
  vertex -0.00586151425 -0.00902051479 0.0170000009
  vertex -0.0102614248 -0.0131951543 0.0173000004
  endloop
 endfacet

endsolid AssimpScene
