solid AssimpScene
 facet normal 0 0 0
  outer loop
  vertex -0.00554750906 -0.0148948403 0.0171426442
  vertex -0.00105010625 -0.010909101 0.0168426447
  vertex 0.00150857377 0.00177992019 0.0168426447
  endloop
 endfacet

 facet normal 0 0 0
  outer loop
  vertex -0.00554750906 -0.0148948403 0.0171426442
  vertex 0.00150857377 0.00177992019 0.0168426447
  vertex -0.0299069043 0.0398337543 0.0183426458
  endloop
 endfacet

 facet normal 0 0 0
  outer loop
  vertex -0.00554750906 -0.0148948403 0.0171426442
  vertex -0.0299069043 0.0398337543 0.0183426458
  vertex -0.0461657234 0.0398337543 0.0183085706
  endloop
 endfacet

 facet normal 0 0 0
  outer loop
  vertex -0.00554750906 -0.0148948403 0.0171426442
  vertex -0.0461657234 0.0398337543 0.0183085706
  vertex -0.0464069061 0.0157337561 0.0182086676
  endloop
 endfacet

 facet normal 0 0 0
  outer loop
  vertex -0.0462069027 0.0538337603 0.00984264538
  vertex -0.0461657234 0.0398337543 0.0183085706
  vertex -0.0299069043 0.0398337543 0.0183426458
  endloop
 endfacet

 facet normal 0 0 0
  outer loop
  vertex -0.0462069027 0.0538337603 0.00984264538
  vertex -0.0299069043 0.0398337543 0.0183426458
  vertex -0.0234069042 0.054633759 0.00875980221
  endloop
 endfacet

 facet normal 0 0 0
  outer loop
  vertex -0.0462069027 0.0538337603 0.00984264538
  vertex -0.0234069042 0.054633759 0.00875980221
  vertex -0.0274569038 0.0548337549 0.00884264521
  endloop
 endfacet

 facet normal 0 0 0
  outer loop
  vertex -0.0131220073 -0.0142290443 0.0168426447
  vertex -0.0464069061 0.0157337561 0.0182086676
  vertex -0.0514069051 0.00923375599 0.00984264538
  endloop
 endfacet

 facet normal 0 0 0
  outer loop
  vertex -0.0131220073 -0.0142290443 0.0168426447
  vertex -0.0514069051 0.00923375599 0.00984264538
  vertex -0.0514069051 0.00923375599 -0.0101573551
  endloop
 endfacet

 facet normal 0 0 0
  outer loop
  vertex -0.0131220073 -0.0142290443 0.0168426447
  vertex -0.0514069051 0.00923375599 -0.0101573551
  vertex -0.0113131795 -0.0151911546 -0.0171573553
  endloop
 endfacet

 facet normal 0 0 0
  outer loop
  vertex -0.0234069042 0.054633759 0.00875980221
  vertex -0.0299069043 0.0398337543 0.0183426458
  vertex 0.00159309781 0.0132337566 0.0163426455
  endloop
 endfacet

 facet normal 0 0 0
  outer loop
  vertex 0.00159309781 0.0132337566 -0.0166573543
  vertex -0.023606902 0.0548337549 -0.00915735494
  vertex -0.0234069042 0.054633759 0.00875980221
  endloop
 endfacet

 facet normal 0 0 0
  outer loop
  vertex 0.00159309781 0.0132337566 -0.0166573543
  vertex -0.0234069042 0.054633759 0.00875980221
  vertex 0.00159309781 0.0132337566 0.0163426455
  endloop
 endfacet

 facet normal 0 0 0
  outer loop
  vertex -0.0052640452 -0.0151230413 -0.0171573553
  vertex -0.00740109012 -0.0157027636 0.0143426443
  vertex -0.0113131795 -0.0151911546 -0.0171573553
  endloop
 endfacet

 facet normal 0 0 0
  outer loop
  vertex 0.00150857377 0.00177992019 0.0168426447
  vertex 0.00159309781 0.0132337566 0.0163426455
  vertex -0.0299069043 0.0398337543 0.0183426458
  endloop
 endfacet

 facet normal 0 0 0
  outer loop
  vertex 0.00150857377 0.00177992019 -0.0171573553
  vertex 0.00129309774 0.00843375642 -0.0174573548
  vertex 0.00159309781 0.0132337566 -0.0166573543
  endloop
 endfacet

 facet normal 0 0 0
  outer loop
  vertex 0.00150857377 0.00177992019 -0.0171573553
  vertex 0.00159309781 0.0132337566 -0.0166573543
  vertex 0.00159309781 0.0132337566 0.0163426455
  endloop
 endfacet

 facet normal 0 0 0
  outer loop
  vertex 0.00150857377 0.00177992019 -0.0171573553
  vertex 0.00159309781 0.0132337566 0.0163426455
  vertex 0.00150857377 0.00177992019 0.0168426447
  endloop
 endfacet

 facet normal 0 0 0
  outer loop
  vertex 0.00150857377 0.00177992019 -0.0171573553
  vertex 0.00150857377 0.00177992019 0.0168426447
  vertex -0.00105010625 -0.010909101 0.0168426447
  endloop
 endfacet

 facet normal 0 0 0
  outer loop
  vertex 0.00150857377 0.00177992019 -0.0171573553
  vertex -0.00105010625 -0.010909101 0.0168426447
  vertex -0.00115617656 -0.0111466255 -0.0171573553
  endloop
 endfacet

 facet normal 0 0 0
  outer loop
  vertex 0.00150857377 0.00177992019 -0.0171573553
  vertex -0.00115617656 -0.0111466255 -0.0171573553
  vertex 0.00129309774 0.00843375642 -0.0174573548
  endloop
 endfacet

 facet normal 0 0 0
  outer loop
  vertex -0.0462069027 0.0548337549 0.00884264521
  vertex -0.0274569038 0.0548337549 0.00884264521
  vertex -0.0234069042 0.054633759 0.00875980221
  endloop
 endfacet

 facet normal 0 0 0
  outer loop
  vertex -0.0462069027 0.0548337549 0.00884264521
  vertex -0.0234069042 0.054633759 0.00875980221
  vertex -0.023606902 0.0548337549 -0.00915735494
  endloop
 endfacet

 facet normal 0 0 0
  outer loop
  vertex -0.0462069027 0.0548337549 0.00884264521
  vertex -0.023606902 0.0548337549 -0.00915735494
  vertex -0.0462069027 0.0548337549 -0.00915735494
  endloop
 endfacet

 facet normal 0 0 0
  outer loop
  vertex -0.0462069027 0.0548337549 0.00884264521
  vertex -0.0462069027 0.0548337549 -0.00915735494
  vertex -0.049306903 0.0381223448 -0.000579090964
  endloop
 endfacet

 facet normal 0 0 0
  outer loop
  vertex -0.0462069027 0.0548337549 0.00884264521
  vertex -0.0462069027 0.0538337603 0.00984264538
  vertex -0.0274569038 0.0548337549 0.00884264521
  endloop
 endfacet

 facet normal 0 0 0
  outer loop
  vertex -0.018106902 0.00843375642 -0.0174573548
  vertex 0.00129309774 0.00843375642 -0.0174573548
  vertex -0.00115617656 -0.0111466255 -0.0171573553
  endloop
 endfacet

 facet normal 0 0 0
  outer loop
  vertex -0.018106902 0.00843375642 -0.0174573548
  vertex -0.00115617656 -0.0111466255 -0.0171573553
  vertex -0.0052640452 -0.0151230413 -0.0171573553
  endloop
 endfacet

 facet normal 0 0 0
  outer loop
  vertex -0.018106902 0.00843375642 -0.0174573548
  vertex -0.0052640452 -0.0151230413 -0.0171573553
  vertex -0.0113131795 -0.0151911546 -0.0171573553
  endloop
 endfacet

 facet normal 0 0 0
  outer loop
  vertex -0.018106902 0.00843375642 -0.0174573548
  vertex -0.0113131795 -0.0151911546 -0.0171573553
  vertex -0.015487819 -0.010791244 -0.0174573548
  endloop
 endfacet

 facet normal 0 0 0
  outer loop
  vertex -0.015487819 -0.010791244 -0.0174573548
  vertex -0.0113131795 -0.0151911546 -0.0171573553
  vertex -0.0514069051 0.00923375599 -0.0101573551
  endloop
 endfacet

 facet normal 0 0 0
  outer loop
  vertex -0.023606902 0.0538337603 -0.0101573551
  vertex -0.023606902 0.0548337549 -0.00915735494
  vertex 0.00159309781 0.0132337566 -0.0166573543
  endloop
 endfacet

 facet normal 0 0 0
  outer loop
  vertex -0.023606902 0.0538337603 -0.0101573551
  vertex 0.00159309781 0.0132337566 -0.0166573543
  vertex 0.00129309774 0.00843375642 -0.0174573548
  endloop
 endfacet

 facet normal 0 0 0
  outer loop
  vertex -0.023606902 0.0538337603 -0.0101573551
  vertex 0.00129309774 0.00843375642 -0.0174573548
  vertex -0.018106902 0.00843375642 -0.0174573548
  endloop
 endfacet

 facet normal 0 0 0
  outer loop
  vertex -0.023606902 0.0538337603 -0.0101573551
  vertex -0.018106902 0.00843375642 -0.0174573548
  vertex -0.0462069027 0.0538337603 -0.0101573551
  endloop
 endfacet

 facet normal 0 0 0
  outer loop
  vertex -0.023606902 0.0538337603 -0.0101573551
  vertex -0.0462069027 0.0538337603 -0.0101573551
  vertex -0.0462069027 0.0548337549 -0.00915735494
  endloop
 endfacet

 facet normal 0 0 0
  outer loop
  vertex -0.023606902 0.0538337603 -0.0101573551
  vertex -0.0462069027 0.0548337549 -0.00915735494
  vertex -0.023606902 0.0548337549 -0.00915735494
  endloop
 endfacet

 facet normal 0 0 0
  outer loop
  vertex -0.0514069051 0.0157337561 0.00984264538
  vertex -0.0462069027 0.0538337603 0.00984264538
  vertex -0.0462069027 0.0548337549 0.00884264521
  endloop
 endfacet

 facet normal 0 0 0
  outer loop
  vertex -0.0514069051 0.0157337561 0.00984264538
  vertex -0.0462069027 0.0548337549 0.00884264521
  vertex -0.049306903 0.0381223448 -0.000579090964
  endloop
 endfacet

 facet normal 0 0 0
  outer loop
  vertex -0.0514069051 0.0157337561 0.00984264538
  vertex -0.0514069051 0.00923375599 0.00984264538
  vertex -0.0464069061 0.0157337561 0.0182086676
  endloop
 endfacet

 facet normal 0 0 0
  outer loop
  vertex -0.0514069051 0.0157337561 0.00984264538
  vertex -0.0464069061 0.0157337561 0.0182086676
  vertex -0.0461657234 0.0398337543 0.0183085706
  endloop
 endfacet

 facet normal 0 0 0
  outer loop
  vertex -0.0514069051 0.0157337561 0.00984264538
  vertex -0.0461657234 0.0398337543 0.0183085706
  vertex -0.0462069027 0.0538337603 0.00984264538
  endloop
 endfacet

 facet normal 0 0 0
  outer loop
  vertex -0.0514069051 0.0157337561 -0.0101573551
  vertex -0.0514069051 0.00923375599 -0.0101573551
  vertex -0.0514069051 0.00923375599 0.00984264538
  endloop
 endfacet

 facet normal 0 0 0
  outer loop
  vertex -0.0514069051 0.0157337561 -0.0101573551
  vertex -0.0514069051 0.00923375599 0.00984264538
  vertex -0.0514069051 0.0157337561 0.00984264538
  endloop
 endfacet

 facet normal 0 0 0
  outer loop
  vertex -0.0514069051 0.0157337561 -0.0101573551
  vertex -0.0514069051 0.0157337561 0.00984264538
  vertex -0.049306903 0.0381223448 -0.000579090964
  endloop
 endfacet

 facet normal 0 0 0
  outer loop
  vertex -0.049306903 0.0381223448 -0.000579090964
  vertex -0.0462069027 0.0548337549 -0.00915735494
  vertex -0.0462069027 0.0538337603 -0.0101573551
  endloop
 endfacet

 facet normal 0 0 0
  outer loop
  vertex -0.049306903 0.0381223448 -0.000579090964
  vertex -0.0462069027 0.0538337603 -0.0101573551
  vertex -0.0514069051 0.0157337561 -0.0101573551
  endloop
 endfacet

 facet normal 0 0 0
  outer loop
  vertex -0.0462069027 0.0538337603 -0.0101573551
  vertex -0.018106902 0.00843375642 -0.0174573548
  vertex -0.015487819 -0.010791244 -0.0174573548
  endloop
 endfacet

 facet normal 0 0 0
  outer loop
  vertex -0.0462069027 0.0538337603 -0.0101573551
  vertex -0.015487819 -0.010791244 -0.0174573548
  vertex -0.0514069051 0.00923375599 -0.0101573551
  endloop
 endfacet

 facet normal 0 0 0
  outer loop
  vertex -0.0462069027 0.0538337603 -0.0101573551
  vertex -0.0514069051 0.00923375599 -0.0101573551
  vertex -0.0514069051 0.0157337561 -0.0101573551
  endloop
 endfacet

 facet normal 0 0 0
  outer loop
  vertex -0.00369179831 -0.0142290443 0.0168426447
  vertex -0.00105010625 -0.010909101 0.0168426447
  vertex -0.00554750906 -0.0148948403 0.0171426442
  endloop
 endfacet

 facet normal 0 0 0
  outer loop
  vertex -0.00369179831 -0.0142290443 0.0168426447
  vertex -0.00554750906 -0.0148948403 0.0171426442
  vertex -0.00740109012 -0.0157027636 0.0143426443
  endloop
 endfacet

 facet normal 0 0 0
  outer loop
  vertex -0.00369179831 -0.0142290443 0.0168426447
  vertex -0.00740109012 -0.0157027636 0.0143426443
  vertex -0.0052640452 -0.0151230413 -0.0171573553
  endloop
 endfacet

 facet normal 0 0 0
  outer loop
  vertex -0.00369179831 -0.0142290443 0.0168426447
  vertex -0.0052640452 -0.0151230413 -0.0171573553
  vertex -0.00115617656 -0.0111466255 -0.0171573553
  endloop
 endfacet

 facet normal 0 0 0
  outer loop
  vertex -0.00369179831 -0.0142290443 0.0168426447
  vertex -0.00115617656 -0.0111466255 -0.0171573553
  vertex -0.00105010625 -0.010909101 0.0168426447
  endloop
 endfacet

 facet normal 0 0 0
  outer loop
  vertex -0.0113131795 -0.0151911546 0.0168426447
  vertex -0.00740109012 -0.0157027636 0.0143426443
  vertex -0.00554750906 -0.0148948403 0.0171426442
  endloop
 endfacet

 facet normal 0 0 0
  outer loop
  vertex -0.00554750906 -0.0148948403 0.0171426442
  vertex -0.0464069061 0.0157337561 0.0182086676
  vertex -0.0131220073 -0.0142290443 0.0168426447
  endloop
 endfacet

 facet normal 0 0 0
  outer loop
  vertex -0.00554750906 -0.0148948403 0.0171426442
  vertex -0.0131220073 -0.0142290443 0.0168426447
  vertex -0.0113131795 -0.0151911546 0.0168426447
  endloop
 endfacet

 facet normal 0 0 0
  outer loop
  vertex -0.0113131795 -0.0151911546 0.0168426447
  vertex -0.0131220073 -0.0142290443 0.0168426447
  vertex -0.0113131795 -0.0151911546 -0.0171573553
  endloop
 endfacet

 facet normal 0 0 0
  outer loop
  vertex -0.0113131795 -0.0151911546 0.0168426447
  vertex -0.0113131795 -0.0151911546 -0.0171573553
  vertex -0.00740109012 -0.0157027636 0.0143426443
  endloop
 endfacet

endsolid AssimpScene
