solid AssimpScene
 facet normal 0 0 0
  outer loop
  vertex 2.41126561e-18 -0.00549999997 0.0460000001
  vertex -0.00500000035 -0.000500000024 0.0460000001
  vertex -0.0800000057 -0.000500000024 0.0460000001
  endloop
 endfacet

 facet normal 0 0 0
  outer loop
  vertex 2.41126561e-18 -0.00549999997 0.0460000001
  vertex -0.0800000057 -0.000500000024 0.0460000001
  vertex -0.0795041248 -0.0978007838 0.0460000001
  endloop
 endfacet

 facet normal 0 0 0
  outer loop
  vertex 2.41126561e-18 -0.00549999997 0.0460000001
  vertex -0.0795041248 -0.0978007838 0.0460000001
  vertex -0.0757317021 -0.104455836 0.0460000001
  endloop
 endfacet

 facet normal 0 0 0
  outer loop
  vertex 2.41126561e-18 -0.00549999997 0.0460000001
  vertex -0.0757317021 -0.104455836 0.0460000001
  vertex -0.0691680238 -0.108385116 0.0460000001
  endloop
 endfacet

 facet normal 0 0 0
  outer loop
  vertex 2.41126561e-18 -0.00549999997 0.0460000001
  vertex -0.0691680238 -0.108385116 0.0460000001
  vertex -0.0100000007 -0.125499994 0.0460000001
  endloop
 endfacet

 facet normal 0 0 0
  outer loop
  vertex 2.41126561e-18 -0.00549999997 0.0460000001
  vertex -0.0100000007 -0.125499994 0.0460000001
  vertex -0.00250000018 -0.124830127 0.0460000001
  endloop
 endfacet

 facet normal 0 0 0
  outer loop
  vertex 2.41126561e-18 -0.00549999997 0.0460000001
  vertex -0.00250000018 -0.124830127 0.0460000001
  vertex 4.66062426e-18 -0.120499998 0.0460000001
  endloop
 endfacet

 facet normal 0 0 0
  outer loop
  vertex -0.0800000057 -0.000500000024 0.0460000001
  vertex -0.0800000057 -0.000500000024 0.0430000015
  vertex -0.0800000057 -0.0170000009 0.0120000001
  endloop
 endfacet

 facet normal 0 0 0
  outer loop
  vertex -0.0800000057 -0.000500000024 0.0460000001
  vertex -0.0800000057 -0.0170000009 0.0120000001
  vertex -0.0800000057 -0.0530000031 3.73517293e-18
  endloop
 endfacet

 facet normal 0 0 0
  outer loop
  vertex -0.0800000057 -0.000500000024 0.0460000001
  vertex -0.0800000057 -0.0530000031 3.73517293e-18
  vertex -0.0800000057 -0.0934758261 0
  endloop
 endfacet

 facet normal 0 0 0
  outer loop
  vertex -0.0800000057 -0.000500000024 0.0460000001
  vertex -0.0800000057 -0.0934758261 0
  vertex -0.0795041248 -0.0978007838 0.0460000001
  endloop
 endfacet

 facet normal 0 0 0
  outer loop
  vertex -0.0800000057 -0.0530000031 3.73517293e-18
  vertex -0.0800000057 -0.0170000009 0.0120000001
  vertex -0.0370000042 -0.00107179675 0
  endloop
 endfacet

 facet normal 0 0 0
  outer loop
  vertex -0.00500000035 -0.000500000024 0.0460000001
  vertex -0.023 1.64763534e-19 0.0399999991
  vertex -0.0800000057 -0.000500000024 0.0460000001
  endloop
 endfacet

 facet normal 0 0 0
  outer loop
  vertex -0.0100000007 -0.125 0.00600000005
  vertex -0.016475603 -0.125729367 0.0311716255
  vertex -0.0601389483 -0.119168475 0.00249999994
  endloop
 endfacet

 facet normal 0 0 0
  outer loop
  vertex -0.0160000026 -0.123264447 0
  vertex -0.0100000007 -0.125 0.00600000005
  vertex -0.0601389483 -0.119168475 0.00249999994
  endloop
 endfacet

 facet normal 0 0 0
  outer loop
  vertex -0.0651281774 -0.118422627 0.00499999989
  vertex -0.0601389483 -0.119168475 0.00249999994
  vertex -0.016475603 -0.125729367 0.0311716255
  endloop
 endfacet

 facet normal 0 0 0
  outer loop
  vertex -0.0651281774 -0.118422627 0.00499999989
  vertex -0.016475603 -0.125729367 0.0311716255
  vertex -0.0100000007 -0.125499994 0.0460000001
  endloop
 endfacet

 facet normal 0 0 0
  outer loop
  vertex -0.0651281774 -0.118422627 0.00499999989
  vertex -0.0100000007 -0.125499994 0.0460000001
  vertex -0.0691680238 -0.108385116 0.0460000001
  endloop
 endfacet

 facet normal 0 0 0
  outer loop
  vertex -0.00500000035 0 0.010999999
  vertex -0.023 1.64763534e-19 0.0399999991
  vertex -0.00500000035 -0.000500000024 0.0460000001
  endloop
 endfacet

 facet normal 0 0 0
  outer loop
  vertex -0.0160000026 0 2.969201e-20
  vertex 0.0220000017 -0.0057000001 0.00649999967
  vertex 0.0220000017 -0.119199999 0.00649999967
  endloop
 endfacet

 facet normal 0 0 0
  outer loop
  vertex -0.0160000026 0 2.969201e-20
  vertex 0.0220000017 -0.119199999 0.00649999967
  vertex -0.0160000026 -0.123264447 0
  endloop
 endfacet

 facet normal 0 0 0
  outer loop
  vertex 0.0207474045 -0.00270000007 0.0169042964
  vertex -0.00500000035 0 0.010999999
  vertex -0.00500000035 -0.000500000024 0.0460000001
  endloop
 endfacet

 facet normal 0 0 0
  outer loop
  vertex -0.0757317021 -0.104455836 0.0460000001
  vertex -0.0757317021 -0.103955843 0
  vertex -0.0651281774 -0.118422627 0.00499999989
  endloop
 endfacet

 facet normal 0 0 0
  outer loop
  vertex -0.0757317021 -0.104455836 0.0460000001
  vertex -0.0651281774 -0.118422627 0.00499999989
  vertex -0.0691680238 -0.108385116 0.0460000001
  endloop
 endfacet

 facet normal 0 0 0
  outer loop
  vertex -0.00250000018 -0.124830127 0.0460000001
  vertex 0.0220000017 -0.119199999 0.0405000001
  vertex 4.66062426e-18 -0.120499998 0.0460000001
  endloop
 endfacet

 facet normal 0 0 0
  outer loop
  vertex -0.00250000018 -0.124830127 0.0460000001
  vertex -0.0100000007 -0.125499994 0.0460000001
  vertex -0.016475603 -0.125729367 0.0311716255
  endloop
 endfacet

 facet normal 0 0 0
  outer loop
  vertex -0.00250000018 -0.124830127 0.0460000001
  vertex -0.016475603 -0.125729367 0.0311716255
  vertex -0.0100000007 -0.125 0.00600000005
  endloop
 endfacet

 facet normal 0 0 0
  outer loop
  vertex -0.00250000018 -0.124830127 0.0460000001
  vertex -0.0100000007 -0.125 0.00600000005
  vertex 0.0172595307 -0.122299999 0.00946575124
  endloop
 endfacet

 facet normal 0 0 0
  outer loop
  vertex -0.00250000018 -0.124830127 0.0460000001
  vertex 0.0172595307 -0.122299999 0.00946575124
  vertex 0.0207885895 -0.122299999 0.0164217353
  endloop
 endfacet

 facet normal 0 0 0
  outer loop
  vertex 0.0172595307 -0.122299999 0.00946575124
  vertex -0.0100000007 -0.125 0.00600000005
  vertex -0.0160000026 -0.123264447 0
  endloop
 endfacet

 facet normal 0 0 0
  outer loop
  vertex 0.0172595307 -0.122299999 0.00946575124
  vertex -0.0160000026 -0.123264447 0
  vertex 0.0220000017 -0.119199999 0.00649999967
  endloop
 endfacet

 facet normal 0 0 0
  outer loop
  vertex 0.018154446 -0.00270072115 0.0101448363
  vertex -0.0160000026 0 2.969201e-20
  vertex -0.00500000035 0 0.010999999
  endloop
 endfacet

 facet normal 0 0 0
  outer loop
  vertex 0.018154446 -0.00270072115 0.0101448363
  vertex -0.00500000035 0 0.010999999
  vertex 0.0207474045 -0.00270000007 0.0169042964
  endloop
 endfacet

 facet normal 0 0 0
  outer loop
  vertex 0.018154446 -0.00270072115 0.0101448363
  vertex 0.0220000017 -0.0057000001 0.00649999967
  vertex -0.0160000026 0 2.969201e-20
  endloop
 endfacet

 facet normal 0 0 0
  outer loop
  vertex -0.0800000057 -0.000500000024 0.0430000015
  vertex -0.0370000042 -0.00107179675 0
  vertex -0.0800000057 -0.0170000009 0.0120000001
  endloop
 endfacet

 facet normal 0 0 0
  outer loop
  vertex 0.023 -0.0057000001 0.00749999937
  vertex 0.0220000017 -0.0057000001 0.00649999967
  vertex 0.018154446 -0.00270072115 0.0101448363
  endloop
 endfacet

 facet normal 0 0 0
  outer loop
  vertex 0.023 -0.0057000001 0.00749999937
  vertex 0.018154446 -0.00270072115 0.0101448363
  vertex 0.0207474045 -0.00270000007 0.0169042964
  endloop
 endfacet

 facet normal 0 0 0
  outer loop
  vertex 0.023 -0.119199999 0.00749999937
  vertex 0.0220000017 -0.119199999 0.00649999967
  vertex 0.0220000017 -0.0057000001 0.00649999967
  endloop
 endfacet

 facet normal 0 0 0
  outer loop
  vertex 0.023 -0.119199999 0.00749999937
  vertex 0.0220000017 -0.0057000001 0.00649999967
  vertex 0.023 -0.0057000001 0.00749999937
  endloop
 endfacet

 facet normal 0 0 0
  outer loop
  vertex 0.023 -0.119199999 0.00749999937
  vertex 0.0207885895 -0.122299999 0.0164217353
  vertex 0.0172595307 -0.122299999 0.00946575124
  endloop
 endfacet

 facet normal 0 0 0
  outer loop
  vertex 0.023 -0.119199999 0.00749999937
  vertex 0.0172595307 -0.122299999 0.00946575124
  vertex 0.0220000017 -0.119199999 0.00649999967
  endloop
 endfacet

 facet normal 0 0 0
  outer loop
  vertex -0.0795041248 -0.0973007753 0
  vertex -0.0757317021 -0.103955843 0
  vertex -0.0757317021 -0.104455836 0.0460000001
  endloop
 endfacet

 facet normal 0 0 0
  outer loop
  vertex -0.0795041248 -0.0973007753 0
  vertex -0.0757317021 -0.104455836 0.0460000001
  vertex -0.0795041248 -0.0978007838 0.0460000001
  endloop
 endfacet

 facet normal 0 0 0
  outer loop
  vertex -0.0795041248 -0.0973007753 0
  vertex -0.0795041248 -0.0978007838 0.0460000001
  vertex -0.0800000057 -0.0934758261 0
  endloop
 endfacet

 facet normal 0 0 0
  outer loop
  vertex -0.064721249 -0.117015846 0.0014644661
  vertex -0.0651281774 -0.118422627 0.00499999989
  vertex -0.0757317021 -0.103955843 0
  endloop
 endfacet

 facet normal 0 0 0
  outer loop
  vertex -0.064721249 -0.117015846 0.0014644661
  vertex -0.0757317021 -0.103955843 0
  vertex -0.0640984252 -0.114862666 0.000170370869
  endloop
 endfacet

 facet normal 0 0 0
  outer loop
  vertex -0.064721249 -0.117015846 0.0014644661
  vertex -0.0640984252 -0.114862666 0.000170370869
  vertex -0.0160000026 -0.123264447 0
  endloop
 endfacet

 facet normal 0 0 0
  outer loop
  vertex -0.064721249 -0.117015846 0.0014644661
  vertex -0.0160000026 -0.123264447 0
  vertex -0.0601389483 -0.119168475 0.00249999994
  endloop
 endfacet

 facet normal 0 0 0
  outer loop
  vertex -0.064721249 -0.117015846 0.0014644661
  vertex -0.0601389483 -0.119168475 0.00249999994
  vertex -0.0651281774 -0.118422627 0.00499999989
  endloop
 endfacet

 facet normal 0 0 0
  outer loop
  vertex 0.023 -0.0057000001 0.0395000018
  vertex 0.023 -0.0057000001 0.00749999937
  vertex 0.0207474045 -0.00270000007 0.0169042964
  endloop
 endfacet

 facet normal 0 0 0
  outer loop
  vertex 0.023 -0.0057000001 0.0395000018
  vertex 0.0207474045 -0.00270000007 0.0169042964
  vertex -0.00500000035 -0.000500000024 0.0460000001
  endloop
 endfacet

 facet normal 0 0 0
  outer loop
  vertex 0.023 -0.0057000001 0.0395000018
  vertex -0.00500000035 -0.000500000024 0.0460000001
  vertex 0.0220000017 -0.0057000001 0.0405000001
  endloop
 endfacet

 facet normal 0 0 0
  outer loop
  vertex 0.023 -0.119199999 0.0395000018
  vertex 0.0220000017 -0.119199999 0.0405000001
  vertex -0.00250000018 -0.124830127 0.0460000001
  endloop
 endfacet

 facet normal 0 0 0
  outer loop
  vertex 0.023 -0.119199999 0.0395000018
  vertex -0.00250000018 -0.124830127 0.0460000001
  vertex 0.0207885895 -0.122299999 0.0164217353
  endloop
 endfacet

 facet normal 0 0 0
  outer loop
  vertex 0.023 -0.119199999 0.0395000018
  vertex 0.0207885895 -0.122299999 0.0164217353
  vertex 0.023 -0.119199999 0.00749999937
  endloop
 endfacet

 facet normal 0 0 0
  outer loop
  vertex 0.023 -0.119199999 0.0395000018
  vertex 0.023 -0.119199999 0.00749999937
  vertex 0.023 -0.0057000001 0.00749999937
  endloop
 endfacet

 facet normal 0 0 0
  outer loop
  vertex 0.023 -0.119199999 0.0395000018
  vertex 0.023 -0.0057000001 0.00749999937
  vertex 0.023 -0.0057000001 0.0395000018
  endloop
 endfacet

 facet normal 0 0 0
  outer loop
  vertex 0.023 -0.119199999 0.0395000018
  vertex 0.023 -0.0057000001 0.0395000018
  vertex 0.0220000017 -0.0057000001 0.0405000001
  endloop
 endfacet

 facet normal 0 0 0
  outer loop
  vertex 0.023 -0.119199999 0.0395000018
  vertex 0.0220000017 -0.0057000001 0.0405000001
  vertex 0.0220000017 -0.119199999 0.0405000001
  endloop
 endfacet

 facet normal 0 0 0
  outer loop
  vertex 2.41126561e-18 -0.00549999997 0.0460000001
  vertex 4.66062426e-18 -0.120499998 0.0460000001
  vertex 0.0220000017 -0.119199999 0.0405000001
  endloop
 endfacet

 facet normal 0 0 0
  outer loop
  vertex 2.41126561e-18 -0.00549999997 0.0460000001
  vertex 0.0220000017 -0.119199999 0.0405000001
  vertex 0.0220000017 -0.0057000001 0.0405000001
  endloop
 endfacet

 facet normal 0 0 0
  outer loop
  vertex 2.41126561e-18 -0.00549999997 0.0460000001
  vertex 0.0220000017 -0.0057000001 0.0405000001
  vertex -0.00500000035 -0.000500000024 0.0460000001
  endloop
 endfacet

 facet normal 0 0 0
  outer loop
  vertex -0.0330000035 0 0
  vertex -0.0370000042 -0.00107179675 0
  vertex -0.0800000057 -0.000500000024 0.0430000015
  endloop
 endfacet

 facet normal 0 0 0
  outer loop
  vertex -0.023 1.64763534e-19 0.0399999991
  vertex -0.00500000035 0 0.010999999
  vertex -0.0160000026 0 2.969201e-20
  endloop
 endfacet

 facet normal 0 0 0
  outer loop
  vertex -0.023 1.64763534e-19 0.0399999991
  vertex -0.0160000026 0 2.969201e-20
  vertex -0.0330000035 0 0
  endloop
 endfacet

 facet normal 0 0 0
  outer loop
  vertex -0.023 1.64763534e-19 0.0399999991
  vertex -0.0330000035 0 0
  vertex -0.0800000057 -0.000500000024 0.0430000015
  endloop
 endfacet

 facet normal 0 0 0
  outer loop
  vertex -0.023 1.64763534e-19 0.0399999991
  vertex -0.0800000057 -0.000500000024 0.0430000015
  vertex -0.0800000057 -0.000500000024 0.0460000001
  endloop
 endfacet

 facet normal 0 0 0
  outer loop
  vertex -0.0330000035 0 0
  vertex -0.0160000026 0 2.969201e-20
  vertex -0.0160000026 -0.123264447 0
  endloop
 endfacet

 facet normal 0 0 0
  outer loop
  vertex -0.0330000035 0 0
  vertex -0.0160000026 -0.123264447 0
  vertex -0.0640984252 -0.114862666 0.000170370869
  endloop
 endfacet

 facet normal 0 0 0
  outer loop
  vertex -0.0330000035 0 0
  vertex -0.0640984252 -0.114862666 0.000170370869
  vertex -0.0757317021 -0.103955843 0
  endloop
 endfacet

 facet normal 0 0 0
  outer loop
  vertex -0.0330000035 0 0
  vertex -0.0757317021 -0.103955843 0
  vertex -0.0795041248 -0.0973007753 0
  endloop
 endfacet

 facet normal 0 0 0
  outer loop
  vertex -0.0330000035 0 0
  vertex -0.0795041248 -0.0973007753 0
  vertex -0.0800000057 -0.0934758261 0
  endloop
 endfacet

 facet normal 0 0 0
  outer loop
  vertex -0.0330000035 0 0
  vertex -0.0800000057 -0.0934758261 0
  vertex -0.0800000057 -0.0530000031 3.73517293e-18
  endloop
 endfacet

 facet normal 0 0 0
  outer loop
  vertex -0.0330000035 0 0
  vertex -0.0800000057 -0.0530000031 3.73517293e-18
  vertex -0.0370000042 -0.00107179675 0
  endloop
 endfacet

endsolid AssimpScene
