solid AssimpScene
 facet normal 0 0 0
  outer loop
  vertex -0.0237840321 -0.0181433633 0.0109999999
  vertex -0.0227840338 -0.0191433635 0.0109999999
  vertex -0.00178403384 -0.01672915 0.0139999995
  endloop
 endfacet

 facet normal 0 0 0
  outer loop
  vertex -0.0237840321 -0.0181433633 0.0109999999
  vertex -0.00178403384 -0.01672915 0.0139999995
  vertex -0.0144334352 0.00538453553 0.0147654451
  endloop
 endfacet

 facet normal 0 0 0
  outer loop
  vertex -0.0237840321 -0.0181433633 0.0109999999
  vertex -0.0144334352 0.00538453553 0.0147654451
  vertex -0.0215792079 0.00563099887 0.0139999995
  endloop
 endfacet

 facet normal 0 0 0
  outer loop
  vertex -0.0215726234 0.00577837275 -0.0146999992
  vertex -0.0031982474 -0.0181433633 -0.0145999994
  vertex -0.0227840338 -0.0191433635 -0.0115999999
  endloop
 endfacet

 facet normal 0 0 0
  outer loop
  vertex -0.0215726234 0.00577837275 -0.0146999992
  vertex -0.0227840338 -0.0191433635 -0.0115999999
  vertex -0.0237840321 -0.0181433633 -0.0115999999
  endloop
 endfacet

 facet normal 0 0 0
  outer loop
  vertex -0.0215792079 0.00563099887 0.0139999995
  vertex -0.0237840321 0.0138566373 0.0109999999
  vertex -0.0237840321 -0.0181433633 0.0109999999
  endloop
 endfacet

 facet normal 0 0 0
  outer loop
  vertex -0.0159486718 0.0128502576 0.0139999995
  vertex -0.0237840321 0.0138566373 0.0109999999
  vertex -0.0215792079 0.00563099887 0.0139999995
  endloop
 endfacet

 facet normal 0 0 0
  outer loop
  vertex -0.0159486718 0.0128502576 0.0139999995
  vertex -0.0215792079 0.00563099887 0.0139999995
  vertex -0.0144334352 0.00538453553 0.0147654451
  endloop
 endfacet

 facet normal 0 0 0
  outer loop
  vertex -0.002784034 0.0148566365 -0.0135999992
  vertex -0.0153925037 0.0129889911 -0.0146999992
  vertex -0.0227840338 0.0148566365 -0.0115999999
  endloop
 endfacet

 facet normal 0 0 0
  outer loop
  vertex -0.002784034 0.0148566365 0.0129999993
  vertex -0.000784034026 0.0128566371 0.0129999993
  vertex -0.000784034026 0.0128566371 -0.0135999992
  endloop
 endfacet

 facet normal 0 0 0
  outer loop
  vertex -0.002784034 0.0148566365 0.0129999993
  vertex -0.000784034026 0.0128566371 -0.0135999992
  vertex -0.002784034 0.0148566365 -0.0135999992
  endloop
 endfacet

 facet normal 0 0 0
  outer loop
  vertex -0.002784034 -0.0191433635 -0.0135999992
  vertex -0.0031982474 -0.0181433633 -0.0145999994
  vertex -0.000784034026 -0.0171433613 -0.0135999992
  endloop
 endfacet

 facet normal 0 0 0
  outer loop
  vertex -0.000784034026 -0.0171433613 0.0129999993
  vertex -0.00178403384 -0.01672915 0.0139999995
  vertex -0.00383403408 -0.0191433635 0.0129999993
  endloop
 endfacet

 facet normal 0 0 0
  outer loop
  vertex -0.000784034026 -0.0171433613 0.0129999993
  vertex -0.00383403408 -0.0191433635 0.0129999993
  vertex -0.002784034 -0.0191433635 -0.0135999992
  endloop
 endfacet

 facet normal 0 0 0
  outer loop
  vertex -0.000784034026 -0.0171433613 0.0129999993
  vertex -0.002784034 -0.0191433635 -0.0135999992
  vertex -0.000784034026 -0.0171433613 -0.0135999992
  endloop
 endfacet

 facet normal 0 0 0
  outer loop
  vertex -0.000784034026 -0.0171433613 0.0129999993
  vertex -0.000784034026 -0.0171433613 -0.0135999992
  vertex -0.000784034026 0.0128566371 -0.0135999992
  endloop
 endfacet

 facet normal 0 0 0
  outer loop
  vertex -0.000784034026 -0.0171433613 0.0129999993
  vertex -0.000784034026 0.0128566371 -0.0135999992
  vertex -0.000784034026 0.0128566371 0.0129999993
  endloop
 endfacet

 facet normal 0 0 0
  outer loop
  vertex -0.0237840321 0.0138566373 -0.0115999999
  vertex -0.0227840338 0.0148566365 -0.0115999999
  vertex -0.0153925037 0.0129889911 -0.0146999992
  endloop
 endfacet

 facet normal 0 0 0
  outer loop
  vertex -0.0237840321 0.0138566373 -0.0115999999
  vertex -0.0153925037 0.0129889911 -0.0146999992
  vertex -0.0215726234 0.00577837275 -0.0146999992
  endloop
 endfacet

 facet normal 0 0 0
  outer loop
  vertex -0.0237840321 0.0138566373 -0.0115999999
  vertex -0.0215726234 0.00577837275 -0.0146999992
  vertex -0.0237840321 -0.0181433633 -0.0115999999
  endloop
 endfacet

 facet normal 0 0 0
  outer loop
  vertex -0.0237840321 0.0138566373 -0.0115999999
  vertex -0.0237840321 -0.0181433633 -0.0115999999
  vertex -0.0237840321 -0.0181433633 0.0109999999
  endloop
 endfacet

 facet normal 0 0 0
  outer loop
  vertex -0.0237840321 0.0138566373 -0.0115999999
  vertex -0.0237840321 -0.0181433633 0.0109999999
  vertex -0.0237840321 0.0138566373 0.0109999999
  endloop
 endfacet

 facet normal 0 0 0
  outer loop
  vertex -0.0227840338 -0.0191433635 -0.0115999999
  vertex -0.0031982474 -0.0181433633 -0.0145999994
  vertex -0.002784034 -0.0191433635 -0.0135999992
  endloop
 endfacet

 facet normal 0 0 0
  outer loop
  vertex -0.0227840338 0.0148566365 0.0109999999
  vertex -0.0237840321 0.0138566373 0.0109999999
  vertex -0.0159486718 0.0128502576 0.0139999995
  endloop
 endfacet

 facet normal 0 0 0
  outer loop
  vertex -0.0227840338 0.0148566365 0.0109999999
  vertex -0.0159486718 0.0128502576 0.0139999995
  vertex -0.002784034 0.0148566365 0.0129999993
  endloop
 endfacet

 facet normal 0 0 0
  outer loop
  vertex -0.0227840338 0.0148566365 0.0109999999
  vertex -0.002784034 0.0148566365 0.0129999993
  vertex -0.002784034 0.0148566365 -0.0135999992
  endloop
 endfacet

 facet normal 0 0 0
  outer loop
  vertex -0.0227840338 0.0148566365 0.0109999999
  vertex -0.002784034 0.0148566365 -0.0135999992
  vertex -0.0227840338 0.0148566365 -0.0115999999
  endloop
 endfacet

 facet normal 0 0 0
  outer loop
  vertex -0.0227840338 0.0148566365 0.0109999999
  vertex -0.0227840338 0.0148566365 -0.0115999999
  vertex -0.0237840321 0.0138566373 -0.0115999999
  endloop
 endfacet

 facet normal 0 0 0
  outer loop
  vertex -0.0227840338 0.0148566365 0.0109999999
  vertex -0.0237840321 0.0138566373 -0.0115999999
  vertex -0.0237840321 0.0138566373 0.0109999999
  endloop
 endfacet

 facet normal 0 0 0
  outer loop
  vertex -0.0227840338 -0.0191433635 0.0109999999
  vertex -0.0237840321 -0.0181433633 0.0109999999
  vertex -0.0237840321 -0.0181433633 -0.0115999999
  endloop
 endfacet

 facet normal 0 0 0
  outer loop
  vertex -0.0227840338 -0.0191433635 0.0109999999
  vertex -0.0237840321 -0.0181433633 -0.0115999999
  vertex -0.0227840338 -0.0191433635 -0.0115999999
  endloop
 endfacet

 facet normal 0 0 0
  outer loop
  vertex -0.0227840338 -0.0191433635 0.0109999999
  vertex -0.0227840338 -0.0191433635 -0.0115999999
  vertex -0.002784034 -0.0191433635 -0.0135999992
  endloop
 endfacet

 facet normal 0 0 0
  outer loop
  vertex -0.0227840338 -0.0191433635 0.0109999999
  vertex -0.002784034 -0.0191433635 -0.0135999992
  vertex -0.00383403408 -0.0191433635 0.0129999993
  endloop
 endfacet

 facet normal 0 0 0
  outer loop
  vertex -0.0227840338 -0.0191433635 0.0109999999
  vertex -0.00383403408 -0.0191433635 0.0129999993
  vertex -0.00178403384 -0.01672915 0.0139999995
  endloop
 endfacet

 facet normal 0 0 0
  outer loop
  vertex -0.00178403384 0.012442423 -0.0145999994
  vertex -0.0031982474 -0.0181433633 -0.0145999994
  vertex -0.0215726234 0.00577837275 -0.0146999992
  endloop
 endfacet

 facet normal 0 0 0
  outer loop
  vertex -0.00178403384 0.012442423 -0.0145999994
  vertex -0.0215726234 0.00577837275 -0.0146999992
  vertex -0.0153925037 0.0129889911 -0.0146999992
  endloop
 endfacet

 facet normal 0 0 0
  outer loop
  vertex -0.00178403384 0.012442423 -0.0145999994
  vertex -0.0153925037 0.0129889911 -0.0146999992
  vertex -0.002784034 0.0148566365 -0.0135999992
  endloop
 endfacet

 facet normal 0 0 0
  outer loop
  vertex -0.00178403384 0.012442423 -0.0145999994
  vertex -0.002784034 0.0148566365 -0.0135999992
  vertex -0.000784034026 0.0128566371 -0.0135999992
  endloop
 endfacet

 facet normal 0 0 0
  outer loop
  vertex -0.00178403384 0.012442423 -0.0145999994
  vertex -0.000784034026 0.0128566371 -0.0135999992
  vertex -0.000784034026 -0.0171433613 -0.0135999992
  endloop
 endfacet

 facet normal 0 0 0
  outer loop
  vertex -0.00178403384 0.012442423 -0.0145999994
  vertex -0.000784034026 -0.0171433613 -0.0135999992
  vertex -0.0031982474 -0.0181433633 -0.0145999994
  endloop
 endfacet

 facet normal 0 0 0
  outer loop
  vertex -0.00178403384 0.012442423 0.0139999995
  vertex -0.000784034026 0.0128566371 0.0129999993
  vertex -0.002784034 0.0148566365 0.0129999993
  endloop
 endfacet

 facet normal 0 0 0
  outer loop
  vertex -0.00178403384 0.012442423 0.0139999995
  vertex -0.002784034 0.0148566365 0.0129999993
  vertex -0.0159486718 0.0128502576 0.0139999995
  endloop
 endfacet

 facet normal 0 0 0
  outer loop
  vertex -0.00178403384 0.012442423 0.0139999995
  vertex -0.0159486718 0.0128502576 0.0139999995
  vertex -0.0144334352 0.00538453553 0.0147654451
  endloop
 endfacet

 facet normal 0 0 0
  outer loop
  vertex -0.00178403384 0.012442423 0.0139999995
  vertex -0.0144334352 0.00538453553 0.0147654451
  vertex -0.00178403384 -0.01672915 0.0139999995
  endloop
 endfacet

 facet normal 0 0 0
  outer loop
  vertex -0.00178403384 0.012442423 0.0139999995
  vertex -0.00178403384 -0.01672915 0.0139999995
  vertex -0.000784034026 -0.0171433613 0.0129999993
  endloop
 endfacet

 facet normal 0 0 0
  outer loop
  vertex -0.00178403384 0.012442423 0.0139999995
  vertex -0.000784034026 -0.0171433613 0.0129999993
  vertex -0.000784034026 0.0128566371 0.0129999993
  endloop
 endfacet

endsolid AssimpScene
