solid AssimpScene
 facet normal 0 0 0
  outer loop
  vertex -0.0342687145 -0.027552953 0.0116286771
  vertex -0.0377904847 -0.00627068989 0.0113286776
  vertex -0.0410624444 -0.00392804295 0.0113286776
  endloop
 endfacet

 facet normal 0 0 0
  outer loop
  vertex -0.0342687145 -0.027552953 0.0116286771
  vertex -0.0410624444 -0.00392804295 0.0113286776
  vertex -0.0468281098 -0.0042243572 0.0116286771
  endloop
 endfacet

 facet normal 0 0 0
  outer loop
  vertex -0.0342687145 -0.027552953 0.0116286771
  vertex -0.0468281098 -0.0042243572 0.0116286771
  vertex -0.0510973111 -0.00849355944 0.0116286771
  endloop
 endfacet

 facet normal 0 0 0
  outer loop
  vertex -0.0342687145 -0.027552953 0.0116286771
  vertex -0.0510973111 -0.00849355944 0.0116286771
  vertex -0.0536687188 -0.027552953 0.0116286771
  endloop
 endfacet

 facet normal 0 0 0
  outer loop
  vertex -0.0529687181 -0.0674529597 0.00562867709
  vertex -0.0621758215 -0.0524529517 0.00603578379
  vertex -0.0624346435 -0.0524529517 -0.0109301433
  endloop
 endfacet

 facet normal 0 0 0
  outer loop
  vertex -0.0529687181 -0.0674529597 0.00562867709
  vertex -0.0624346435 -0.0524529517 -0.0109301433
  vertex -0.0539687164 -0.0664529502 -0.0169713236
  endloop
 endfacet

 facet normal 0 0 0
  outer loop
  vertex -0.0624346435 -0.0524529517 -0.0109301433
  vertex -0.0624687187 -0.0304529537 -0.0186713245
  vertex -0.0539687164 -0.0664529502 -0.0169713236
  endloop
 endfacet

 facet normal 0 0 0
  outer loop
  vertex -0.0624346435 -0.0524529517 -0.0109301433
  vertex -0.0621758215 -0.0524529517 0.00603578379
  vertex -0.0624346435 -0.0283529535 0.0055874954
  endloop
 endfacet

 facet normal 0 0 0
  outer loop
  vertex -0.0624346435 -0.0524529517 -0.0109301433
  vertex -0.0624346435 -0.0283529535 0.0055874954
  vertex -0.0624687187 -0.0283529535 -0.0186713245
  endloop
 endfacet

 facet normal 0 0 0
  outer loop
  vertex -0.0624346435 -0.0524529517 -0.0109301433
  vertex -0.0624687187 -0.0283529535 -0.0186713245
  vertex -0.0624687187 -0.0304529537 -0.0186713245
  endloop
 endfacet

 facet normal 0 0 0
  outer loop
  vertex -0.0408258587 -0.00399615709 -0.0226713251
  vertex -0.0377904847 -0.00627068989 0.0113286776
  vertex -0.0365438089 -0.00844667666 -0.0226713251
  endloop
 endfacet

 facet normal 0 0 0
  outer loop
  vertex -0.0536687188 -0.027552953 0.0116286771
  vertex -0.0510973111 -0.00849355944 0.0116286771
  vertex -0.0624346435 -0.0283529535 0.0055874954
  endloop
 endfacet

 facet normal 0 0 0
  outer loop
  vertex -0.0536687188 -0.027552953 0.0116286771
  vertex -0.0624346435 -0.0283529535 0.0055874954
  vertex -0.0621758215 -0.0524529517 0.00603578379
  endloop
 endfacet

 facet normal 0 0 0
  outer loop
  vertex -0.0493444614 -0.063605614 0.0086279558
  vertex -0.0536687188 -0.027552953 0.0116286771
  vertex -0.0621758215 -0.0524529517 0.00603578379
  endloop
 endfacet

 facet normal 0 0 0
  outer loop
  vertex -0.0493444614 -0.063605614 0.0086279558
  vertex -0.0621758215 -0.0524529517 0.00603578379
  vertex -0.0529687181 -0.0674529597 0.00562867709
  endloop
 endfacet

 facet normal 0 0 0
  outer loop
  vertex -0.0497742966 -0.0631621033 -0.020071324
  vertex -0.0539687164 -0.0664529502 -0.0169713236
  vertex -0.0624687187 -0.0304529537 -0.0186713245
  endloop
 endfacet

 facet normal 0 0 0
  outer loop
  vertex -0.0497742966 -0.0631621033 -0.020071324
  vertex -0.0624687187 -0.0304529537 -0.0186713245
  vertex -0.0536687188 -0.027552953 -0.0229713228
  endloop
 endfacet

 facet normal 0 0 0
  outer loop
  vertex -0.0410624444 -0.00392804295 0.0113286776
  vertex -0.044974532 -0.00341643346 0.00882867631
  vertex -0.0468281098 -0.0042243572 0.0116286771
  endloop
 endfacet

 facet normal 0 0 0
  outer loop
  vertex -0.0410624444 -0.00392804295 0.0113286776
  vertex -0.0377904847 -0.00627068989 0.0113286776
  vertex -0.0408258587 -0.00399615709 -0.0226713251
  endloop
 endfacet

 facet normal 0 0 0
  outer loop
  vertex -0.0437321924 -0.0657493696 0.00862867665
  vertex -0.0493444614 -0.063605614 0.0086279558
  vertex -0.0529687181 -0.0674529597 0.00562867709
  endloop
 endfacet

 facet normal 0 0 0
  outer loop
  vertex -0.044974532 -0.00341643346 -0.0215713251
  vertex -0.044974532 -0.00341643346 0.00882867631
  vertex -0.0410624444 -0.00392804295 0.0113286776
  endloop
 endfacet

 facet normal 0 0 0
  outer loop
  vertex -0.044974532 -0.00341643346 -0.0215713251
  vertex -0.0410624444 -0.00392804295 0.0113286776
  vertex -0.0408258587 -0.00399615709 -0.0226713251
  endloop
 endfacet

 facet normal 0 0 0
  outer loop
  vertex -0.044974532 -0.00341643346 -0.0215713251
  vertex -0.0408258587 -0.00399615709 -0.0226713251
  vertex -0.0486838184 -0.00489015225 -0.0226713251
  endloop
 endfacet

 facet normal 0 0 0
  outer loop
  vertex -0.044974532 -0.00341643346 -0.0215713251
  vertex -0.0486838184 -0.00489015225 -0.0226713251
  vertex -0.0468281098 -0.0042243572 0.0116286771
  endloop
 endfacet

 facet normal 0 0 0
  outer loop
  vertex -0.044974532 -0.00341643346 -0.0215713251
  vertex -0.0468281098 -0.0042243572 0.0116286771
  vertex -0.044974532 -0.00341643346 0.00882867631
  endloop
 endfacet

 facet normal 0 0 0
  outer loop
  vertex -0.0529687181 -0.0674529597 -0.0169713236
  vertex -0.0539687164 -0.0664529502 -0.0169713236
  vertex -0.0497742966 -0.0631621033 -0.020071324
  endloop
 endfacet

 facet normal 0 0 0
  outer loop
  vertex -0.0529687181 -0.0674529597 -0.0169713236
  vertex -0.0529687181 -0.0674529597 0.00562867709
  vertex -0.0539687164 -0.0664529502 -0.0169713236
  endloop
 endfacet

 facet normal 0 0 0
  outer loop
  vertex -0.0340532437 -0.020899117 -0.0226713251
  vertex -0.0340532437 -0.020899117 0.0113286776
  vertex -0.0339687169 -0.0664529502 0.00562867709
  endloop
 endfacet

 facet normal 0 0 0
  outer loop
  vertex -0.0340532437 -0.020899117 -0.0226713251
  vertex -0.0339687169 -0.0664529502 0.00562867709
  vertex -0.0339687169 -0.0664529502 -0.0169713236
  endloop
 endfacet

 facet normal 0 0 0
  outer loop
  vertex -0.0340532437 -0.020899117 -0.0226713251
  vertex -0.0339687169 -0.0664529502 -0.0169713236
  vertex -0.0342687145 -0.027552953 -0.0229713228
  endloop
 endfacet

 facet normal 0 0 0
  outer loop
  vertex -0.0340532437 -0.020899117 -0.0226713251
  vertex -0.0342687145 -0.027552953 -0.0229713228
  vertex -0.0365438089 -0.00844667666 -0.0226713251
  endloop
 endfacet

 facet normal 0 0 0
  outer loop
  vertex -0.0624687187 -0.0283529535 -0.0186713245
  vertex -0.0536687188 -0.027552953 -0.0229713228
  vertex -0.0624687187 -0.0304529537 -0.0186713245
  endloop
 endfacet

 facet normal 0 0 0
  outer loop
  vertex -0.0510973111 -0.00849355944 -0.0229713228
  vertex -0.0536687188 -0.027552953 -0.0229713228
  vertex -0.0624687187 -0.0283529535 -0.0186713245
  endloop
 endfacet

 facet normal 0 0 0
  outer loop
  vertex -0.0510973111 -0.00849355944 -0.0229713228
  vertex -0.0486838184 -0.00489015225 -0.0226713251
  vertex -0.0408258587 -0.00399615709 -0.0226713251
  endloop
 endfacet

 facet normal 0 0 0
  outer loop
  vertex -0.0510973111 -0.00849355944 -0.0229713228
  vertex -0.0408258587 -0.00399615709 -0.0226713251
  vertex -0.0365438089 -0.00844667666 -0.0226713251
  endloop
 endfacet

 facet normal 0 0 0
  outer loop
  vertex -0.0510973111 -0.00849355944 -0.0229713228
  vertex -0.0365438089 -0.00844667666 -0.0226713251
  vertex -0.0342687145 -0.027552953 -0.0229713228
  endloop
 endfacet

 facet normal 0 0 0
  outer loop
  vertex -0.0510973111 -0.00849355944 -0.0229713228
  vertex -0.0342687145 -0.027552953 -0.0229713228
  vertex -0.0536687188 -0.027552953 -0.0229713228
  endloop
 endfacet

 facet normal 0 0 0
  outer loop
  vertex -0.0365546681 -0.0603761561 -0.020071324
  vertex -0.0404396579 -0.0649089441 -0.020071324
  vertex -0.0342687145 -0.027552953 -0.0229713228
  endloop
 endfacet

 facet normal 0 0 0
  outer loop
  vertex -0.0365546681 -0.0603761561 -0.020071324
  vertex -0.0342687145 -0.027552953 -0.0229713228
  vertex -0.0339687169 -0.0664529502 -0.0169713236
  endloop
 endfacet

 facet normal 0 0 0
  outer loop
  vertex -0.0365546681 -0.0603761561 -0.020071324
  vertex -0.0339687169 -0.0664529502 -0.0169713236
  vertex -0.0349687152 -0.0674529597 -0.0169713236
  endloop
 endfacet

 facet normal 0 0 0
  outer loop
  vertex -0.0365546681 -0.0603761561 -0.020071324
  vertex -0.0349687152 -0.0674529597 -0.0169713236
  vertex -0.0404396579 -0.0649089441 -0.020071324
  endloop
 endfacet

 facet normal 0 0 0
  outer loop
  vertex -0.0349687152 -0.0674529597 0.00562867709
  vertex -0.0349687152 -0.0674529597 -0.0169713236
  vertex -0.0339687169 -0.0664529502 -0.0169713236
  endloop
 endfacet

 facet normal 0 0 0
  outer loop
  vertex -0.0349687152 -0.0674529597 0.00562867709
  vertex -0.0339687169 -0.0664529502 -0.0169713236
  vertex -0.0339687169 -0.0664529502 0.00562867709
  endloop
 endfacet

 facet normal 0 0 0
  outer loop
  vertex -0.0349687152 -0.0674529597 0.00562867709
  vertex -0.0339687169 -0.0664529502 0.00562867709
  vertex -0.0384666845 -0.0634817556 0.00862867665
  endloop
 endfacet

 facet normal 0 0 0
  outer loop
  vertex -0.0349687152 -0.0674529597 0.00562867709
  vertex -0.0384666845 -0.0634817556 0.00862867665
  vertex -0.0437321924 -0.0657493696 0.00862867665
  endloop
 endfacet

 facet normal 0 0 0
  outer loop
  vertex -0.0349687152 -0.0674529597 0.00562867709
  vertex -0.0437321924 -0.0657493696 0.00862867665
  vertex -0.0529687181 -0.0674529597 0.00562867709
  endloop
 endfacet

 facet normal 0 0 0
  outer loop
  vertex -0.0349687152 -0.0674529597 0.00562867709
  vertex -0.0529687181 -0.0674529597 0.00562867709
  vertex -0.0529687181 -0.0674529597 -0.0169713236
  endloop
 endfacet

 facet normal 0 0 0
  outer loop
  vertex -0.0349687152 -0.0674529597 0.00562867709
  vertex -0.0529687181 -0.0674529597 -0.0169713236
  vertex -0.0349687152 -0.0674529597 -0.0169713236
  endloop
 endfacet

 facet normal 0 0 0
  outer loop
  vertex -0.0501469523 -0.00627068989 0.0113286776
  vertex -0.0510973111 -0.00849355944 0.0116286771
  vertex -0.0468281098 -0.0042243572 0.0116286771
  endloop
 endfacet

 facet normal 0 0 0
  outer loop
  vertex -0.0501469523 -0.00627068989 0.0113286776
  vertex -0.0468281098 -0.0042243572 0.0116286771
  vertex -0.0486838184 -0.00489015225 -0.0226713251
  endloop
 endfacet

 facet normal 0 0 0
  outer loop
  vertex -0.0501469523 -0.00627068989 0.0113286776
  vertex -0.0486838184 -0.00489015225 -0.0226713251
  vertex -0.0510973111 -0.00849355944 -0.0229713228
  endloop
 endfacet

 facet normal 0 0 0
  outer loop
  vertex -0.0510973111 -0.00849355944 -0.0229713228
  vertex -0.0624687187 -0.0283529535 -0.0186713245
  vertex -0.0624346435 -0.0283529535 0.0055874954
  endloop
 endfacet

 facet normal 0 0 0
  outer loop
  vertex -0.0510973111 -0.00849355944 -0.0229713228
  vertex -0.0624346435 -0.0283529535 0.0055874954
  vertex -0.0501469523 -0.00627068989 0.0113286776
  endloop
 endfacet

 facet normal 0 0 0
  outer loop
  vertex -0.0501469523 -0.00627068989 0.0113286776
  vertex -0.0624346435 -0.0283529535 0.0055874954
  vertex -0.0510973111 -0.00849355944 0.0116286771
  endloop
 endfacet

 facet normal 0 0 0
  outer loop
  vertex -0.0342687145 -0.027552953 0.0116286771
  vertex -0.0384666845 -0.0634817556 0.00862867665
  vertex -0.0339687169 -0.0664529502 0.00562867709
  endloop
 endfacet

 facet normal 0 0 0
  outer loop
  vertex -0.0342687145 -0.027552953 0.0116286771
  vertex -0.0339687169 -0.0664529502 0.00562867709
  vertex -0.0340532437 -0.020899117 0.0113286776
  endloop
 endfacet

 facet normal 0 0 0
  outer loop
  vertex -0.0342687145 -0.027552953 0.0116286771
  vertex -0.0340532437 -0.020899117 0.0113286776
  vertex -0.0377904847 -0.00627068989 0.0113286776
  endloop
 endfacet

 facet normal 0 0 0
  outer loop
  vertex -0.0536687188 -0.027552953 0.0116286771
  vertex -0.0493444614 -0.063605614 0.0086279558
  vertex -0.0437321924 -0.0657493696 0.00862867665
  endloop
 endfacet

 facet normal 0 0 0
  outer loop
  vertex -0.0536687188 -0.027552953 0.0116286771
  vertex -0.0437321924 -0.0657493696 0.00862867665
  vertex -0.0384666845 -0.0634817556 0.00862867665
  endloop
 endfacet

 facet normal 0 0 0
  outer loop
  vertex -0.0536687188 -0.027552953 0.0116286771
  vertex -0.0384666845 -0.0634817556 0.00862867665
  vertex -0.0342687145 -0.027552953 0.0116286771
  endloop
 endfacet

 facet normal 0 0 0
  outer loop
  vertex -0.0443904512 -0.0657415465 -0.020071324
  vertex -0.0404396579 -0.0649089441 -0.020071324
  vertex -0.0349687152 -0.0674529597 -0.0169713236
  endloop
 endfacet

 facet normal 0 0 0
  outer loop
  vertex -0.0443904512 -0.0657415465 -0.020071324
  vertex -0.0349687152 -0.0674529597 -0.0169713236
  vertex -0.0529687181 -0.0674529597 -0.0169713236
  endloop
 endfacet

 facet normal 0 0 0
  outer loop
  vertex -0.0443904512 -0.0657415465 -0.020071324
  vertex -0.0529687181 -0.0674529597 -0.0169713236
  vertex -0.0497742966 -0.0631621033 -0.020071324
  endloop
 endfacet

 facet normal 0 0 0
  outer loop
  vertex -0.0342687145 -0.027552953 -0.0229713228
  vertex -0.0404396579 -0.0649089441 -0.020071324
  vertex -0.0443904512 -0.0657415465 -0.020071324
  endloop
 endfacet

 facet normal 0 0 0
  outer loop
  vertex -0.0342687145 -0.027552953 -0.0229713228
  vertex -0.0443904512 -0.0657415465 -0.020071324
  vertex -0.0497742966 -0.0631621033 -0.020071324
  endloop
 endfacet

 facet normal 0 0 0
  outer loop
  vertex -0.0342687145 -0.027552953 -0.0229713228
  vertex -0.0497742966 -0.0631621033 -0.020071324
  vertex -0.0536687188 -0.027552953 -0.0229713228
  endloop
 endfacet

 facet normal 0 0 0
  outer loop
  vertex -0.0361039564 -0.00988819171 0.0101286769
  vertex -0.0365438089 -0.00844667666 -0.0226713251
  vertex -0.0377904847 -0.00627068989 0.0113286776
  endloop
 endfacet

 facet normal 0 0 0
  outer loop
  vertex -0.0361039564 -0.00988819171 0.0101286769
  vertex -0.0377904847 -0.00627068989 0.0113286776
  vertex -0.0340532437 -0.020899117 0.0113286776
  endloop
 endfacet

 facet normal 0 0 0
  outer loop
  vertex -0.0361039564 -0.00988819171 0.0101286769
  vertex -0.0340532437 -0.020899117 0.0113286776
  vertex -0.0340532437 -0.020899117 -0.0226713251
  endloop
 endfacet

 facet normal 0 0 0
  outer loop
  vertex -0.0361039564 -0.00988819171 0.0101286769
  vertex -0.0340532437 -0.020899117 -0.0226713251
  vertex -0.0365438089 -0.00844667666 -0.0226713251
  endloop
 endfacet

endsolid AssimpScene
