solid AssimpScene
 facet normal 0 0 0
  outer loop
  vertex -0.0046051247 -0.00429020822 0.0170000009
  vertex -0.00204644492 0.0083988132 0.0170000009
  vertex -0.00196192088 0.0149283838 0.0170000009
  endloop
 endfacet

 facet normal 0 0 0
  outer loop
  vertex -0.0046051247 -0.00429020822 0.0170000009
  vertex -0.00196192088 0.0149283838 0.0170000009
  vertex -0.0216619205 0.0150526483 0.0173000004
  endloop
 endfacet

 facet normal 0 0 0
  outer loop
  vertex -0.0046051247 -0.00429020822 0.0170000009
  vertex -0.0216619205 0.0150526483 0.0173000004
  vertex -0.0192126464 -0.00452773226 0.0170000009
  endloop
 endfacet

 facet normal 0 0 0
  outer loop
  vertex -0.0046051247 -0.00429020822 0.0170000009
  vertex -0.0192126464 -0.00452773226 0.0170000009
  vertex -0.0151047772 -0.00850414671 0.0170000009
  endloop
 endfacet

 facet normal 0 0 0
  outer loop
  vertex -0.0046051247 -0.00429020822 0.0170000009
  vertex -0.0151047772 -0.00850414671 0.0170000009
  vertex -0.00881906319 -0.00850414671 0.0170000009
  endloop
 endfacet

 facet normal 0 0 0
  outer loop
  vertex -0.0046051247 -0.00429020822 0.0170000009
  vertex -0.00881906319 -0.00850414671 0.0170000009
  vertex -0.00578368455 -0.00622961391 -0.0170000009
  endloop
 endfacet

 facet normal 0 0 0
  outer loop
  vertex -0.0151047772 -0.00850414671 0.0170000009
  vertex -0.0192126464 -0.00452773226 0.0170000009
  vertex -0.0192126464 -0.00452773226 -0.0170000009
  endloop
 endfacet

 facet normal 0 0 0
  outer loop
  vertex -0.0151047772 -0.00850414671 0.0170000009
  vertex -0.0129677327 -0.0090838708 -0.0159000009
  vertex -0.00881906319 -0.00850414671 0.0170000009
  endloop
 endfacet

 facet normal 0 0 0
  outer loop
  vertex -0.0148213143 -0.0082759466 -0.0173000004
  vertex -0.0129677327 -0.0090838708 -0.0159000009
  vertex -0.0151047772 -0.00850414671 0.0170000009
  endloop
 endfacet

 facet normal 0 0 0
  outer loop
  vertex -0.0148213143 -0.0082759466 -0.0173000004
  vertex -0.0151047772 -0.00850414671 0.0170000009
  vertex -0.0192126464 -0.00452773226 -0.0170000009
  endloop
 endfacet

 facet normal 0 0 0
  outer loop
  vertex -0.00910252705 -0.0082759466 -0.0173000004
  vertex -0.0129677327 -0.0090838708 -0.0159000009
  vertex -0.0148213143 -0.0082759466 -0.0173000004
  endloop
 endfacet

 facet normal 0 0 0
  outer loop
  vertex -0.00910252705 -0.0082759466 -0.0173000004
  vertex -0.00226192083 0.0150526483 -0.0173000004
  vertex -0.00204644492 0.0083988132 -0.0170000009
  endloop
 endfacet

 facet normal 0 0 0
  outer loop
  vertex -0.00910252705 -0.0082759466 -0.0173000004
  vertex -0.00204644492 0.0083988132 -0.0170000009
  vertex -0.00578368455 -0.00622961391 -0.0170000009
  endloop
 endfacet

 facet normal 0 0 0
  outer loop
  vertex -0.00910252705 -0.0082759466 -0.0173000004
  vertex -0.00578368455 -0.00622961391 -0.0170000009
  vertex -0.00881906319 -0.00850414671 0.0170000009
  endloop
 endfacet

 facet normal 0 0 0
  outer loop
  vertex -0.00910252705 -0.0082759466 -0.0173000004
  vertex -0.00881906319 -0.00850414671 0.0170000009
  vertex -0.0129677327 -0.0090838708 -0.0159000009
  endloop
 endfacet

 facet normal 0 0 0
  outer loop
  vertex -0.021877395 0.0083988132 0.0170000009
  vertex -0.021877395 0.0083988132 -0.0170000009
  vertex -0.0192126464 -0.00452773226 -0.0170000009
  endloop
 endfacet

 facet normal 0 0 0
  outer loop
  vertex -0.021877395 0.0083988132 0.0170000009
  vertex -0.0192126464 -0.00452773226 -0.0170000009
  vertex -0.0192126464 -0.00452773226 0.0170000009
  endloop
 endfacet

 facet normal 0 0 0
  outer loop
  vertex -0.021877395 0.0083988132 0.0170000009
  vertex -0.0192126464 -0.00452773226 0.0170000009
  vertex -0.0216619205 0.0150526483 0.0173000004
  endloop
 endfacet

 facet normal 0 0 0
  outer loop
  vertex -0.00226192083 0.0158526469 0.0164999999
  vertex -0.0216619205 0.0150526483 0.0173000004
  vertex -0.00196192088 0.0149283838 0.0170000009
  endloop
 endfacet

 facet normal 0 0 0
  outer loop
  vertex -0.0216619205 0.0158526469 0.0164999999
  vertex -0.0216619205 0.0150526483 0.0173000004
  vertex -0.00226192083 0.0158526469 0.0164999999
  endloop
 endfacet

 facet normal 0 0 0
  outer loop
  vertex -0.0216619205 0.0158526469 -0.0164999999
  vertex -0.0216619205 0.0150526483 -0.0173000004
  vertex -0.021877395 0.0083988132 -0.0170000009
  endloop
 endfacet

 facet normal 0 0 0
  outer loop
  vertex -0.0216619205 0.0158526469 -0.0164999999
  vertex -0.021877395 0.0083988132 -0.0170000009
  vertex -0.021877395 0.0083988132 0.0170000009
  endloop
 endfacet

 facet normal 0 0 0
  outer loop
  vertex -0.0216619205 0.0158526469 -0.0164999999
  vertex -0.021877395 0.0083988132 0.0170000009
  vertex -0.0216619205 0.0150526483 0.0173000004
  endloop
 endfacet

 facet normal 0 0 0
  outer loop
  vertex -0.0216619205 0.0158526469 -0.0164999999
  vertex -0.0216619205 0.0150526483 0.0173000004
  vertex -0.0216619205 0.0158526469 0.0164999999
  endloop
 endfacet

 facet normal 0 0 0
  outer loop
  vertex -0.00226192083 0.0158526469 -0.0164999999
  vertex -0.0216619205 0.0158526469 -0.0164999999
  vertex -0.0216619205 0.0158526469 0.0164999999
  endloop
 endfacet

 facet normal 0 0 0
  outer loop
  vertex -0.00226192083 0.0158526469 -0.0164999999
  vertex -0.0216619205 0.0158526469 0.0164999999
  vertex -0.00226192083 0.0158526469 0.0164999999
  endloop
 endfacet

 facet normal 0 0 0
  outer loop
  vertex -0.00226192083 0.0158526469 -0.0164999999
  vertex -0.00226192083 0.0158526469 0.0164999999
  vertex -0.00196192088 0.0149283838 0.0170000009
  endloop
 endfacet

 facet normal 0 0 0
  outer loop
  vertex -0.00196192088 0.0149283838 0.0170000009
  vertex -0.00204644492 0.0083988132 0.0170000009
  vertex -0.00204644492 0.0083988132 -0.0170000009
  endloop
 endfacet

 facet normal 0 0 0
  outer loop
  vertex -0.00196192088 0.0149283838 0.0170000009
  vertex -0.00204644492 0.0083988132 -0.0170000009
  vertex -0.00226192083 0.0150526483 -0.0173000004
  endloop
 endfacet

 facet normal 0 0 0
  outer loop
  vertex -0.00196192088 0.0149283838 0.0170000009
  vertex -0.00226192083 0.0150526483 -0.0173000004
  vertex -0.00226192083 0.0158526469 -0.0164999999
  endloop
 endfacet

 facet normal 0 0 0
  outer loop
  vertex -0.0216619205 0.0150526483 -0.0173000004
  vertex -0.00226192083 0.0150526483 -0.0173000004
  vertex -0.00910252705 -0.0082759466 -0.0173000004
  endloop
 endfacet

 facet normal 0 0 0
  outer loop
  vertex -0.0216619205 0.0150526483 -0.0173000004
  vertex -0.00910252705 -0.0082759466 -0.0173000004
  vertex -0.0148213143 -0.0082759466 -0.0173000004
  endloop
 endfacet

 facet normal 0 0 0
  outer loop
  vertex -0.0216619205 0.0150526483 -0.0173000004
  vertex -0.0148213143 -0.0082759466 -0.0173000004
  vertex -0.0192126464 -0.00452773226 -0.0170000009
  endloop
 endfacet

 facet normal 0 0 0
  outer loop
  vertex -0.0216619205 0.0150526483 -0.0173000004
  vertex -0.0192126464 -0.00452773226 -0.0170000009
  vertex -0.021877395 0.0083988132 -0.0170000009
  endloop
 endfacet

 facet normal 0 0 0
  outer loop
  vertex -0.0216619205 0.0150526483 -0.0173000004
  vertex -0.0216619205 0.0158526469 -0.0164999999
  vertex -0.00226192083 0.0158526469 -0.0164999999
  endloop
 endfacet

 facet normal 0 0 0
  outer loop
  vertex -0.0216619205 0.0150526483 -0.0173000004
  vertex -0.00226192083 0.0158526469 -0.0164999999
  vertex -0.00226192083 0.0150526483 -0.0173000004
  endloop
 endfacet

 facet normal 0 0 0
  outer loop
  vertex -0.00409715949 -0.00261211256 -0.0157999992
  vertex -0.00578368455 -0.00622961391 -0.0170000009
  vertex -0.00204644492 0.0083988132 -0.0170000009
  endloop
 endfacet

 facet normal 0 0 0
  outer loop
  vertex -0.00409715949 -0.00261211256 -0.0157999992
  vertex -0.00204644492 0.0083988132 -0.0170000009
  vertex -0.00204644492 0.0083988132 0.0170000009
  endloop
 endfacet

 facet normal 0 0 0
  outer loop
  vertex -0.00409715949 -0.00261211256 -0.0157999992
  vertex -0.00204644492 0.0083988132 0.0170000009
  vertex -0.0046051247 -0.00429020822 0.0170000009
  endloop
 endfacet

 facet normal 0 0 0
  outer loop
  vertex -0.00409715949 -0.00261211256 -0.0157999992
  vertex -0.0046051247 -0.00429020822 0.0170000009
  vertex -0.00578368455 -0.00622961391 -0.0170000009
  endloop
 endfacet

endsolid AssimpScene
