solid AssimpScene
 facet normal 0 0 0
  outer loop
  vertex -0.0725595355 -0.0699596852 -0.0745929107
  vertex -0.073487781 -0.139172345 -0.0671310872
  vertex -0.0736294016 -0.138710499 -0.0595503151
  endloop
 endfacet

 facet normal 0 0 0
  outer loop
  vertex -0.0725595355 -0.0699596852 -0.0745929107
  vertex -0.0736294016 -0.138710499 -0.0595503151
  vertex -0.0735315606 -0.136481002 -0.055267293
  endloop
 endfacet

 facet normal 0 0 0
  outer loop
  vertex -0.0725595355 -0.0699596852 -0.0745929107
  vertex -0.0735315606 -0.136481002 -0.055267293
  vertex -0.0723595396 -0.0700425282 -0.0517929122
  endloop
 endfacet

 facet normal 0 0 0
  outer loop
  vertex -0.0553699732 -0.136953056 -0.0597549975
  vertex -0.0546664782 -0.135114521 -0.0697422996
  vertex -0.0440595374 -0.108059682 -0.0762929097
  endloop
 endfacet

 facet normal 0 0 0
  outer loop
  vertex -0.0553699732 -0.136953056 -0.0597549975
  vertex -0.0440595374 -0.108059682 -0.0762929097
  vertex -0.0441935137 -0.108059682 -0.0517929122
  endloop
 endfacet

 facet normal 0 0 0
  outer loop
  vertex -0.0441935137 -0.108059682 -0.0517929122
  vertex -0.0440595374 -0.108059682 -0.0762929097
  vertex -0.0440936163 -0.0839596763 -0.0685517341
  endloop
 endfacet

 facet normal 0 0 0
  outer loop
  vertex -0.0441935137 -0.108059682 -0.0517929122
  vertex -0.0440936163 -0.0839596763 -0.0685517341
  vertex -0.0440936163 -0.0839596763 -0.0520340912
  endloop
 endfacet

 facet normal 0 0 0
  outer loop
  vertex -0.0525595434 -0.0699596852 -0.0745929107
  vertex -0.0525595434 -0.0699596852 -0.0519929118
  vertex -0.0440936163 -0.0839596763 -0.0520340912
  endloop
 endfacet

 facet normal 0 0 0
  outer loop
  vertex -0.0525595434 -0.0699596852 -0.0745929107
  vertex -0.0440936163 -0.0839596763 -0.0520340912
  vertex -0.0440936163 -0.0839596763 -0.0685517341
  endloop
 endfacet

 facet normal 0 0 0
  outer loop
  vertex -0.0525595434 -0.0699596852 -0.0745929107
  vertex -0.0440936163 -0.0839596763 -0.0685517341
  vertex -0.0440595374 -0.108059682 -0.0762929097
  endloop
 endfacet

 facet normal 0 0 0
  outer loop
  vertex -0.0530595407 -0.108059682 -0.0467929132
  vertex -0.0441935137 -0.108059682 -0.0517929122
  vertex -0.0440936163 -0.0839596763 -0.0520340912
  endloop
 endfacet

 facet normal 0 0 0
  outer loop
  vertex -0.0720595419 -0.108059682 -0.0467929132
  vertex -0.0530595407 -0.108059682 -0.0467929132
  vertex -0.0562838875 -0.0738263801 -0.0489936322
  endloop
 endfacet

 facet normal 0 0 0
  outer loop
  vertex -0.0720595419 -0.108059682 -0.0467929132
  vertex -0.0562838875 -0.0738263801 -0.0489936322
  vertex -0.0627960712 -0.0706632733 -0.0489929132
  endloop
 endfacet

 facet normal 0 0 0
  outer loop
  vertex -0.0612295009 -0.13459371 -0.0521427132
  vertex -0.0722318515 -0.135911644 -0.0532118976
  vertex -0.0719926655 -0.139519081 -0.0569151565
  endloop
 endfacet

 facet normal 0 0 0
  outer loop
  vertex -0.0612295009 -0.13459371 -0.0521427132
  vertex -0.0719926655 -0.139519081 -0.0569151565
  vertex -0.0607156008 -0.139309913 -0.0566800274
  endloop
 endfacet

 facet normal 0 0 0
  outer loop
  vertex -0.0720595419 -0.108059682 -0.0797929093
  vertex -0.0621378012 -0.070671089 -0.077692911
  vertex -0.0556035563 -0.0749306232 -0.077692911
  endloop
 endfacet

 facet normal 0 0 0
  outer loop
  vertex -0.0720595419 -0.108059682 -0.0797929093
  vertex -0.0556035563 -0.0749306232 -0.077692911
  vertex -0.0530595407 -0.108059682 -0.0797929093
  endloop
 endfacet

 facet normal 0 0 0
  outer loop
  vertex -0.0559488609 -0.134294078 -0.0541816987
  vertex -0.0441935137 -0.108059682 -0.0517929122
  vertex -0.0530595407 -0.108059682 -0.0467929132
  endloop
 endfacet

 facet normal 0 0 0
  outer loop
  vertex -0.0559488609 -0.134294078 -0.0541816987
  vertex -0.0530595407 -0.108059682 -0.0467929132
  vertex -0.0612295009 -0.13459371 -0.0521427132
  endloop
 endfacet

 facet normal 0 0 0
  outer loop
  vertex -0.0559488609 -0.134294078 -0.0541816987
  vertex -0.0553699732 -0.136953056 -0.0597549975
  vertex -0.0441935137 -0.108059682 -0.0517929122
  endloop
 endfacet

 facet normal 0 0 0
  outer loop
  vertex -0.0716576576 -0.139710292 -0.0693260804
  vertex -0.0599481799 -0.140011996 -0.0668591335
  vertex -0.061882671 -0.140444756 -0.060115952
  endloop
 endfacet

 facet normal 0 0 0
  outer loop
  vertex -0.0716576576 -0.139710292 -0.0693260804
  vertex -0.061882671 -0.140444756 -0.060115952
  vertex -0.0716576576 -0.140559688 -0.0612929128
  endloop
 endfacet

 facet normal 0 0 0
  outer loop
  vertex -0.0699735954 -0.076036483 -0.077692911
  vertex -0.0621378012 -0.070671089 -0.077692911
  vertex -0.0720595419 -0.108059682 -0.0797929093
  endloop
 endfacet

 facet normal 0 0 0
  outer loop
  vertex -0.0699735954 -0.076036483 -0.077692911
  vertex -0.0720595419 -0.108059682 -0.0797929093
  vertex -0.0725595355 -0.0699596852 -0.0745929107
  endloop
 endfacet

 facet normal 0 0 0
  outer loop
  vertex -0.0556035563 -0.0749306232 -0.077692911
  vertex -0.0525595434 -0.0699596852 -0.0745929107
  vertex -0.0440595374 -0.108059682 -0.0762929097
  endloop
 endfacet

 facet normal 0 0 0
  outer loop
  vertex -0.0556035563 -0.0749306232 -0.077692911
  vertex -0.0440595374 -0.108059682 -0.0762929097
  vertex -0.0530595407 -0.108059682 -0.0797929093
  endloop
 endfacet

 facet normal 0 0 0
  outer loop
  vertex -0.0696939528 -0.0753068775 -0.0489929132
  vertex -0.0720595419 -0.108059682 -0.0467929132
  vertex -0.0627960712 -0.0706632733 -0.0489929132
  endloop
 endfacet

 facet normal 0 0 0
  outer loop
  vertex -0.0696939528 -0.0753068775 -0.0489929132
  vertex -0.0723595396 -0.0700425282 -0.0517929122
  vertex -0.0720595419 -0.108059682 -0.0467929132
  endloop
 endfacet

 facet normal 0 0 0
  outer loop
  vertex -0.0719926655 -0.139519081 -0.0569151565
  vertex -0.0736294016 -0.138710499 -0.0595503151
  vertex -0.0716576576 -0.140559688 -0.0612929128
  endloop
 endfacet

 facet normal 0 0 0
  outer loop
  vertex -0.0694347993 -0.132622838 -0.0750777721
  vertex -0.0603472441 -0.132646963 -0.0750351027
  vertex -0.0597649775 -0.136745185 -0.0729158744
  endloop
 endfacet

 facet normal 0 0 0
  outer loop
  vertex -0.0694347993 -0.132622838 -0.0750777721
  vertex -0.0597649775 -0.136745185 -0.0729158744
  vertex -0.072626479 -0.136650756 -0.0727125183
  endloop
 endfacet

 facet normal 0 0 0
  outer loop
  vertex -0.0694347993 -0.132622838 -0.0750777721
  vertex -0.072626479 -0.136650756 -0.0727125183
  vertex -0.0720595419 -0.108059682 -0.0797929093
  endloop
 endfacet

 facet normal 0 0 0
  outer loop
  vertex -0.0720595419 -0.108059682 -0.0797929093
  vertex -0.0530595407 -0.108059682 -0.0797929093
  vertex -0.0603472441 -0.132646963 -0.0750351027
  endloop
 endfacet

 facet normal 0 0 0
  outer loop
  vertex -0.0720595419 -0.108059682 -0.0797929093
  vertex -0.0603472441 -0.132646963 -0.0750351027
  vertex -0.0694347993 -0.132622838 -0.0750777721
  endloop
 endfacet

 facet normal 0 0 0
  outer loop
  vertex -0.0562838875 -0.0738263801 -0.0489936322
  vertex -0.0530595407 -0.108059682 -0.0467929132
  vertex -0.0440936163 -0.0839596763 -0.0520340912
  endloop
 endfacet

 facet normal 0 0 0
  outer loop
  vertex -0.0562838875 -0.0738263801 -0.0489936322
  vertex -0.0440936163 -0.0839596763 -0.0520340912
  vertex -0.0525595434 -0.0699596852 -0.0519929118
  endloop
 endfacet

 facet normal 0 0 0
  outer loop
  vertex -0.073487781 -0.139172345 -0.0671310872
  vertex -0.0716576576 -0.139710292 -0.0693260804
  vertex -0.0716576576 -0.140559688 -0.0612929128
  endloop
 endfacet

 facet normal 0 0 0
  outer loop
  vertex -0.073487781 -0.139172345 -0.0671310872
  vertex -0.0716576576 -0.140559688 -0.0612929128
  vertex -0.0736294016 -0.138710499 -0.0595503151
  endloop
 endfacet

 facet normal 0 0 0
  outer loop
  vertex -0.073487781 -0.139172345 -0.0671310872
  vertex -0.0725595355 -0.0699596852 -0.0745929107
  vertex -0.0720595419 -0.108059682 -0.0797929093
  endloop
 endfacet

 facet normal 0 0 0
  outer loop
  vertex -0.073487781 -0.139172345 -0.0671310872
  vertex -0.0720595419 -0.108059682 -0.0797929093
  vertex -0.072626479 -0.136650756 -0.0727125183
  endloop
 endfacet

 facet normal 0 0 0
  outer loop
  vertex -0.073487781 -0.139172345 -0.0671310872
  vertex -0.072626479 -0.136650756 -0.0727125183
  vertex -0.0716576576 -0.139710292 -0.0693260804
  endloop
 endfacet

 facet normal 0 0 0
  outer loop
  vertex -0.0715595484 -0.0689596832 -0.0519929118
  vertex -0.0723595396 -0.0700425282 -0.0517929122
  vertex -0.0696939528 -0.0753068775 -0.0489929132
  endloop
 endfacet

 facet normal 0 0 0
  outer loop
  vertex -0.0715595484 -0.0689596832 -0.0519929118
  vertex -0.0696939528 -0.0753068775 -0.0489929132
  vertex -0.0627960712 -0.0706632733 -0.0489929132
  endloop
 endfacet

 facet normal 0 0 0
  outer loop
  vertex -0.0715595484 -0.0689596832 -0.0519929118
  vertex -0.0725595355 -0.0699596852 -0.0745929107
  vertex -0.0723595396 -0.0700425282 -0.0517929122
  endloop
 endfacet

 facet normal 0 0 0
  outer loop
  vertex -0.053559538 -0.0689596832 -0.0519929118
  vertex -0.0715595484 -0.0689596832 -0.0519929118
  vertex -0.0627960712 -0.0706632733 -0.0489929132
  endloop
 endfacet

 facet normal 0 0 0
  outer loop
  vertex -0.053559538 -0.0689596832 -0.0519929118
  vertex -0.0627960712 -0.0706632733 -0.0489929132
  vertex -0.0562838875 -0.0738263801 -0.0489936322
  endloop
 endfacet

 facet normal 0 0 0
  outer loop
  vertex -0.053559538 -0.0689596832 -0.0519929118
  vertex -0.0562838875 -0.0738263801 -0.0489936322
  vertex -0.0525595434 -0.0699596852 -0.0519929118
  endloop
 endfacet

 facet normal 0 0 0
  outer loop
  vertex -0.0530595407 -0.108059682 -0.0797929093
  vertex -0.0440595374 -0.108059682 -0.0762929097
  vertex -0.0564949885 -0.134281129 -0.0729062706
  endloop
 endfacet

 facet normal 0 0 0
  outer loop
  vertex -0.0530595407 -0.108059682 -0.0797929093
  vertex -0.0564949885 -0.134281129 -0.0729062706
  vertex -0.0603472441 -0.132646963 -0.0750351027
  endloop
 endfacet

 facet normal 0 0 0
  outer loop
  vertex -0.0715595484 -0.0689596832 -0.0745929107
  vertex -0.0725595355 -0.0699596852 -0.0745929107
  vertex -0.0715595484 -0.0689596832 -0.0519929118
  endloop
 endfacet

 facet normal 0 0 0
  outer loop
  vertex -0.0715595484 -0.0689596832 -0.0745929107
  vertex -0.0621378012 -0.070671089 -0.077692911
  vertex -0.0699735954 -0.076036483 -0.077692911
  endloop
 endfacet

 facet normal 0 0 0
  outer loop
  vertex -0.0715595484 -0.0689596832 -0.0745929107
  vertex -0.0699735954 -0.076036483 -0.077692911
  vertex -0.0725595355 -0.0699596852 -0.0745929107
  endloop
 endfacet

 facet normal 0 0 0
  outer loop
  vertex -0.0564949885 -0.134281129 -0.0729062706
  vertex -0.0440595374 -0.108059682 -0.0762929097
  vertex -0.0546664782 -0.135114521 -0.0697422996
  endloop
 endfacet

 facet normal 0 0 0
  outer loop
  vertex -0.0564949885 -0.134281129 -0.0729062706
  vertex -0.0597649775 -0.136745185 -0.0729158744
  vertex -0.0603472441 -0.132646963 -0.0750351027
  endloop
 endfacet

 facet normal 0 0 0
  outer loop
  vertex -0.0576698221 -0.138452277 -0.0692051649
  vertex -0.0597649775 -0.136745185 -0.0729158744
  vertex -0.0564949885 -0.134281129 -0.0729062706
  endloop
 endfacet

 facet normal 0 0 0
  outer loop
  vertex -0.0576698221 -0.138452277 -0.0692051649
  vertex -0.0564949885 -0.134281129 -0.0729062706
  vertex -0.0546664782 -0.135114521 -0.0697422996
  endloop
 endfacet

 facet normal 0 0 0
  outer loop
  vertex -0.0576698221 -0.138452277 -0.0692051649
  vertex -0.0546664782 -0.135114521 -0.0697422996
  vertex -0.0553699732 -0.136953056 -0.0597549975
  endloop
 endfacet

 facet normal 0 0 0
  outer loop
  vertex -0.053559538 -0.0689596832 -0.0745929107
  vertex -0.0715595484 -0.0689596832 -0.0745929107
  vertex -0.0715595484 -0.0689596832 -0.0519929118
  endloop
 endfacet

 facet normal 0 0 0
  outer loop
  vertex -0.053559538 -0.0689596832 -0.0745929107
  vertex -0.0715595484 -0.0689596832 -0.0519929118
  vertex -0.053559538 -0.0689596832 -0.0519929118
  endloop
 endfacet

 facet normal 0 0 0
  outer loop
  vertex -0.053559538 -0.0689596832 -0.0745929107
  vertex -0.053559538 -0.0689596832 -0.0519929118
  vertex -0.0525595434 -0.0699596852 -0.0519929118
  endloop
 endfacet

 facet normal 0 0 0
  outer loop
  vertex -0.053559538 -0.0689596832 -0.0745929107
  vertex -0.0525595434 -0.0699596852 -0.0519929118
  vertex -0.0525595434 -0.0699596852 -0.0745929107
  endloop
 endfacet

 facet normal 0 0 0
  outer loop
  vertex -0.053559538 -0.0689596832 -0.0745929107
  vertex -0.0525595434 -0.0699596852 -0.0745929107
  vertex -0.0556035563 -0.0749306232 -0.077692911
  endloop
 endfacet

 facet normal 0 0 0
  outer loop
  vertex -0.053559538 -0.0689596832 -0.0745929107
  vertex -0.0556035563 -0.0749306232 -0.077692911
  vertex -0.0621378012 -0.070671089 -0.077692911
  endloop
 endfacet

 facet normal 0 0 0
  outer loop
  vertex -0.053559538 -0.0689596832 -0.0745929107
  vertex -0.0621378012 -0.070671089 -0.077692911
  vertex -0.0715595484 -0.0689596832 -0.0745929107
  endloop
 endfacet

 facet normal 0 0 0
  outer loop
  vertex -0.0568566881 -0.13714911 -0.0559771769
  vertex -0.0553699732 -0.136953056 -0.0597549975
  vertex -0.0559488609 -0.134294078 -0.0541816987
  endloop
 endfacet

 facet normal 0 0 0
  outer loop
  vertex -0.0568566881 -0.13714911 -0.0559771769
  vertex -0.0559488609 -0.134294078 -0.0541816987
  vertex -0.0612295009 -0.13459371 -0.0521427132
  endloop
 endfacet

 facet normal 0 0 0
  outer loop
  vertex -0.0568566881 -0.13714911 -0.0559771769
  vertex -0.0612295009 -0.13459371 -0.0521427132
  vertex -0.0607156008 -0.139309913 -0.0566800274
  endloop
 endfacet

 facet normal 0 0 0
  outer loop
  vertex -0.0735315606 -0.136481002 -0.055267293
  vertex -0.0720595419 -0.108059682 -0.0467929132
  vertex -0.0723595396 -0.0700425282 -0.0517929122
  endloop
 endfacet

 facet normal 0 0 0
  outer loop
  vertex -0.0735315606 -0.136481002 -0.055267293
  vertex -0.0736294016 -0.138710499 -0.0595503151
  vertex -0.0719926655 -0.139519081 -0.0569151565
  endloop
 endfacet

 facet normal 0 0 0
  outer loop
  vertex -0.0735315606 -0.136481002 -0.055267293
  vertex -0.0719926655 -0.139519081 -0.0569151565
  vertex -0.0722318515 -0.135911644 -0.0532118976
  endloop
 endfacet

 facet normal 0 0 0
  outer loop
  vertex -0.0735315606 -0.136481002 -0.055267293
  vertex -0.0722318515 -0.135911644 -0.0532118976
  vertex -0.0720595419 -0.108059682 -0.0467929132
  endloop
 endfacet

 facet normal 0 0 0
  outer loop
  vertex -0.0584477894 -0.139309779 -0.0589485317
  vertex -0.0553699732 -0.136953056 -0.0597549975
  vertex -0.0568566881 -0.13714911 -0.0559771769
  endloop
 endfacet

 facet normal 0 0 0
  outer loop
  vertex -0.0584477894 -0.139309779 -0.0589485317
  vertex -0.0568566881 -0.13714911 -0.0559771769
  vertex -0.0607156008 -0.139309913 -0.0566800274
  endloop
 endfacet

 facet normal 0 0 0
  outer loop
  vertex -0.0584477894 -0.139309779 -0.0589485317
  vertex -0.0599481799 -0.140011996 -0.0668591335
  vertex -0.0576698221 -0.138452277 -0.0692051649
  endloop
 endfacet

 facet normal 0 0 0
  outer loop
  vertex -0.0584477894 -0.139309779 -0.0589485317
  vertex -0.0576698221 -0.138452277 -0.0692051649
  vertex -0.0553699732 -0.136953056 -0.0597549975
  endloop
 endfacet

 facet normal 0 0 0
  outer loop
  vertex -0.0613288358 -0.139126867 -0.0703962445
  vertex -0.0599481799 -0.140011996 -0.0668591335
  vertex -0.0716576576 -0.139710292 -0.0693260804
  endloop
 endfacet

 facet normal 0 0 0
  outer loop
  vertex -0.0716576576 -0.139710292 -0.0693260804
  vertex -0.072626479 -0.136650756 -0.0727125183
  vertex -0.0597649775 -0.136745185 -0.0729158744
  endloop
 endfacet

 facet normal 0 0 0
  outer loop
  vertex -0.0716576576 -0.139710292 -0.0693260804
  vertex -0.0597649775 -0.136745185 -0.0729158744
  vertex -0.0613288358 -0.139126867 -0.0703962445
  endloop
 endfacet

 facet normal 0 0 0
  outer loop
  vertex -0.0613288358 -0.139126867 -0.0703962445
  vertex -0.0597649775 -0.136745185 -0.0729158744
  vertex -0.0576698221 -0.138452277 -0.0692051649
  endloop
 endfacet

 facet normal 0 0 0
  outer loop
  vertex -0.0613288358 -0.139126867 -0.0703962445
  vertex -0.0576698221 -0.138452277 -0.0692051649
  vertex -0.0599481799 -0.140011996 -0.0668591335
  endloop
 endfacet

 facet normal 0 0 0
  outer loop
  vertex -0.061882671 -0.140444756 -0.060115952
  vertex -0.0599481799 -0.140011996 -0.0668591335
  vertex -0.0584477894 -0.139309779 -0.0589485317
  endloop
 endfacet

 facet normal 0 0 0
  outer loop
  vertex -0.061882671 -0.140444756 -0.060115952
  vertex -0.0584477894 -0.139309779 -0.0589485317
  vertex -0.0607156008 -0.139309913 -0.0566800274
  endloop
 endfacet

 facet normal 0 0 0
  outer loop
  vertex -0.061882671 -0.140444756 -0.060115952
  vertex -0.0607156008 -0.139309913 -0.0566800274
  vertex -0.0719926655 -0.139519081 -0.0569151565
  endloop
 endfacet

 facet normal 0 0 0
  outer loop
  vertex -0.061882671 -0.140444756 -0.060115952
  vertex -0.0719926655 -0.139519081 -0.0569151565
  vertex -0.0716576576 -0.140559688 -0.0612929128
  endloop
 endfacet

 facet normal 0 0 0
  outer loop
  vertex -0.0700411722 -0.133672372 -0.0517908782
  vertex -0.0720595419 -0.108059682 -0.0467929132
  vertex -0.0722318515 -0.135911644 -0.0532118976
  endloop
 endfacet

 facet normal 0 0 0
  outer loop
  vertex -0.0700411722 -0.133672372 -0.0517908782
  vertex -0.0722318515 -0.135911644 -0.0532118976
  vertex -0.0612295009 -0.13459371 -0.0521427132
  endloop
 endfacet

 facet normal 0 0 0
  outer loop
  vertex -0.0700411722 -0.133672372 -0.0517908782
  vertex -0.0612295009 -0.13459371 -0.0521427132
  vertex -0.0530595407 -0.108059682 -0.0467929132
  endloop
 endfacet

 facet normal 0 0 0
  outer loop
  vertex -0.0700411722 -0.133672372 -0.0517908782
  vertex -0.0530595407 -0.108059682 -0.0467929132
  vertex -0.0720595419 -0.108059682 -0.0467929132
  endloop
 endfacet

endsolid AssimpScene
